<?xml version="1.0" encoding="UTF-8" standalone="no"?>
<!-- Created with Inkscape (http://www.inkscape.org/) -->

<svg
   xmlns:dc="http://purl.org/dc/elements/1.1/"
   xmlns:cc="http://creativecommons.org/ns#"
   xmlns:rdf="http://www.w3.org/1999/02/22-rdf-syntax-ns#"
   xmlns:svg="http://www.w3.org/2000/svg"
   xmlns="http://www.w3.org/2000/svg"
   xmlns:xlink="http://www.w3.org/1999/xlink"
   xmlns:sodipodi="http://sodipodi.sourceforge.net/DTD/sodipodi-0.dtd"
   xmlns:inkscape="http://www.inkscape.org/namespaces/inkscape"
   width="64"
   height="64"
   viewBox="0 0 16.933333 16.933334"
   version="1.1"
   id="svg5898"
   inkscape:version="0.92.1 r15371"
   sodipodi:docname="1cestart.svg">
  <defs
     id="defs5892">
    <linearGradient
       inkscape:collect="always"
       id="linearGradient6451">
      <stop
         style="stop-color:#e5d73b;stop-opacity:1"
         offset="0"
         id="stop6447" />
      <stop
         style="stop-color:#fff369;stop-opacity:1"
         offset="1"
         id="stop6449" />
    </linearGradient>
    <linearGradient
       inkscape:collect="always"
       xlink:href="#linearGradient6451"
       id="linearGradient6453"
       x1="8.2852859"
       y1="296.01788"
       x2="8.2852859"
       y2="280.9697"
       gradientUnits="userSpaceOnUse" />
  </defs>
  <sodipodi:namedview
     id="base"
     pagecolor="#ffffff"
     bordercolor="#666666"
     borderopacity="1.0"
     inkscape:pageopacity="0.0"
     inkscape:pageshadow="2"
     inkscape:zoom="2.8"
     inkscape:cx="29.314967"
     inkscape:cy="0.94505003"
     inkscape:document-units="mm"
     inkscape:current-layer="layer1"
     showgrid="false"
     units="px"
     inkscape:window-width="1920"
     inkscape:window-height="1040"
     inkscape:window-x="0"
     inkscape:window-y="0"
     inkscape:window-maximized="1" />
  <metadata
     id="metadata5895">
    <rdf:RDF>
      <cc:Work
         rdf:about="">
        <dc:format>image/svg+xml</dc:format>
        <dc:type
           rdf:resource="http://purl.org/dc/dcmitype/StillImage" />
        <dc:title></dc:title>
      </cc:Work>
    </rdf:RDF>
  </metadata>
  <g
     inkscape:label="Capa 1"
     inkscape:groupmode="layer"
     id="layer1"
     transform="translate(0,-280.06665)">
    <circle
       r="7.8677473"
       cy="288.69458"
       cx="8.4022856"
       id="circle6445"
       style="opacity:1;fill:#000000;fill-opacity:0.28629032;stroke:none;stroke-width:1.76451325;stroke-linecap:round;stroke-linejoin:round;stroke-miterlimit:4;stroke-dasharray:none;stroke-dashoffset:0;stroke-opacity:0.02000002" />
    <circle
       style="opacity:1;fill:url(#linearGradient6453);fill-opacity:1;stroke:none;stroke-width:1.76451325;stroke-linecap:round;stroke-linejoin:round;stroke-miterlimit:4;stroke-dasharray:none;stroke-dashoffset:0;stroke-opacity:0.02000002"
       id="path6443"
       cx="8.4022856"
       cy="288.36386"
       r="7.8677473" />
    <path
       id="path6500"
       d="m 3.2646026,285.77484 v 1.23245 h 1.2324427 v 4.31355 h 1.2324426 v -5.546 z m 6.1622132,0 c -1.5314947,0 -2.7729958,1.2415 -2.7729958,2.773 0,1.52112 1.2251404,2.75454 2.7423078,2.77118 v 10e-4 h 3.6840792 c 0.19562,-0.3889 0.349336,-0.80121 0.459762,-1.23244 H 9.427001 c -0.8508172,0 -1.5405535,-0.68974 -1.5405535,-1.54055 0,-0.85082 0.6897363,-1.54056 1.5405535,-1.54056 0.611846,7.9e-4 1.165244,0.36358 1.409976,0.92434 h 1.290829 c -0.287466,-1.26044 -1.407757,-2.15519 -2.7008979,-2.15642 z"
       inkscape:connector-curvature="0"
       style="fill:#000000;fill-opacity:0.08467742;stroke-width:0.12718748" />
    <path
       style="fill:#ffffff;fill-opacity:1;stroke-width:0.12718748"
       inkscape:connector-curvature="0"
       d="m 3.2646026,285.59109 v 1.23245 h 1.2324427 v 4.31355 h 1.2324426 v -5.546 z m 6.1622132,0 c -1.5314947,0 -2.7729958,1.2415 -2.7729958,2.773 0,1.52112 1.2251404,2.75454 2.7423078,2.77118 v 0.001 h 3.6840792 c 0.19562,-0.3889 0.349336,-0.80121 0.459762,-1.23244 H 9.427001 c -0.8508172,0 -1.5405535,-0.68974 -1.5405535,-1.54055 0,-0.85082 0.6897363,-1.54056 1.5405535,-1.54056 0.611846,7.9e-4 1.165244,0.36358 1.409976,0.92434 h 1.290829 c -0.287466,-1.26044 -1.407757,-2.15519 -2.7008979,-2.15642 z"
       id="path4150-3-7" />
  </g>
</svg>
