<?xml version="1.0" encoding="UTF-8" standalone="no"?>
<svg
   xmlns:dc="http://purl.org/dc/elements/1.1/"
   xmlns:cc="http://creativecommons.org/ns#"
   xmlns:rdf="http://www.w3.org/1999/02/22-rdf-syntax-ns#"
   xmlns:svg="http://www.w3.org/2000/svg"
   xmlns="http://www.w3.org/2000/svg"
   xmlns:xlink="http://www.w3.org/1999/xlink"
   xmlns:sodipodi="http://sodipodi.sourceforge.net/DTD/sodipodi-0.dtd"
   xmlns:inkscape="http://www.inkscape.org/namespaces/inkscape"
   width="64"
   height="64"
   version="1.1"
   viewBox="0 0 16.933 16.933"
   id="svg529"
   sodipodi:docname="2xsession.svg"
   inkscape:version="0.92.1 r15371">
  <metadata
     id="metadata533">
    <rdf:RDF>
      <cc:Work
         rdf:about="">
        <dc:format>image/svg+xml</dc:format>
        <dc:type
           rdf:resource="http://purl.org/dc/dcmitype/StillImage" />
        <dc:title></dc:title>
      </cc:Work>
    </rdf:RDF>
  </metadata>
  <sodipodi:namedview
     pagecolor="#ffffff"
     bordercolor="#666666"
     borderopacity="1"
     objecttolerance="10"
     gridtolerance="10"
     guidetolerance="10"
     inkscape:pageopacity="0"
     inkscape:pageshadow="2"
     inkscape:window-width="1920"
     inkscape:window-height="1040"
     id="namedview531"
     showgrid="false"
     inkscape:zoom="3.6875"
     inkscape:cx="3.2542373"
     inkscape:cy="32"
     inkscape:window-x="0"
     inkscape:window-y="0"
     inkscape:window-maximized="1"
     inkscape:current-layer="svg529" />
  <defs
     id="defs151">
    <linearGradient
       id="a"
       x1="-6.1472"
       x2="-6.1472"
       y1="-137.82"
       y2="-100.78"
       gradientTransform="matrix(0.53033,0,0,0.53033,11.536,71.99)"
       gradientUnits="userSpaceOnUse">
      <stop
         stop-color="#32b4ff"
         offset="0"
         id="stop2" />
      <stop
         stop-color="#3287ff"
         offset="1"
         id="stop4" />
    </linearGradient>
    <clipPath
       id="aw">
      <path
         d="m481 318h22v22h-22z"
         id="path7" />
    </clipPath>
    <clipPath
       id="av">
      <path
         d="m507 318h22v22h-22z"
         id="path10" />
    </clipPath>
    <clipPath
       id="au">
      <path
         d="m530 318h22v22h-22z"
         id="path13" />
    </clipPath>
    <clipPath
       id="at">
      <path
         d="m672 1064c0-1.105 4.925-2 11-2s11 0.895 11 2-4.925 2-11 2-11-0.895-11-2"
         id="path16" />
    </clipPath>
    <clipPath
       id="as">
      <path
         d="m660 1057h51v65.001h-51z"
         id="path19" />
    </clipPath>
    <clipPath
       id="ar">
      <path
         d="m659 517h53v18h-53z"
         id="path22" />
    </clipPath>
    <clipPath
       id="aq">
      <path
         d="m659 500h53v18h-53z"
         id="path25" />
    </clipPath>
    <clipPath
       id="ap">
      <path
         d="m648 112h73v60h-73z"
         id="path28" />
    </clipPath>
    <clipPath
       id="ao">
      <path
         d="m826 1056h59v60h-59z"
         id="path31" />
    </clipPath>
    <clipPath
       id="an">
      <path
         d="m805 276h100v100h-100z"
         id="path34" />
    </clipPath>
    <clipPath
       id="am">
      <path
         d="m145 1063.8h74.152v45.21h-74.152z"
         id="path37" />
    </clipPath>
    <clipPath
       id="al">
      <path
         d="m151 667h57v57h-57z"
         id="path40" />
    </clipPath>
    <clipPath
       id="ak">
      <path
         d="m154 697h51v51h-51z"
         id="path43" />
    </clipPath>
    <clipPath
       id="aj">
      <path
         d="m500.04 864.45h36.012v67.52h-36.012z"
         id="path46" />
    </clipPath>
    <clipPath
       id="ai">
      <path
         d="m836 870.54h47v55.539h-47z"
         id="path49" />
    </clipPath>
    <clipPath
       id="ah">
      <path
         d="m318.03 702.35h62.848v37.991h-62.848z"
         id="path52" />
    </clipPath>
    <clipPath
       id="ag">
      <path
         d="m485.03 133.35h62.847v37.991h-62.847z"
         id="path55" />
    </clipPath>
    <clipPath
       id="af">
      <path
         d="m493.37 677.93h45.643v68.067h-45.643z"
         id="path58" />
    </clipPath>
    <clipPath
       id="ae">
      <path
         d="m144.34 1018.2h71.467v78h-71.467z"
         id="path61" />
    </clipPath>
    <clipPath
       id="ad">
      <path
         d="m293.21 1068.6 66.323-38.292 36.047 62.435-66.323 38.292z"
         id="path64" />
    </clipPath>
    <clipPath
       id="ac">
      <path
         d="m488.86 1054.5h10v10.706h-10z"
         id="path67" />
    </clipPath>
    <clipPath
       id="ab">
      <path
         d="m508 1066.8h10.001v10.705h-10.001z"
         id="path70" />
    </clipPath>
    <clipPath
       id="aa">
      <path
         d="m525 1045.8h10v10.706h-10z"
         id="path73" />
    </clipPath>
    <clipPath
       id="z">
      <path
         d="m836 1043.7h25.5v31.5h-25.5z"
         id="path76" />
    </clipPath>
    <clipPath
       id="y">
      <path
         d="m838 1062.2h24v24h-24z"
         id="path79" />
    </clipPath>
    <clipPath
       id="x">
      <path
         d="m134 489.24h7v6h-7z"
         id="path82" />
    </clipPath>
    <clipPath
       id="w">
      <path
         d="m216 489.24h7v6h-7z"
         id="path85" />
    </clipPath>
    <clipPath
       id="v">
      <path
         d="m838 477.24h22v22h-22z"
         id="path88" />
    </clipPath>
    <clipPath
       id="u">
      <path
         d="m704 1061.2h25v25h-25z"
         id="path91" />
    </clipPath>
    <clipPath
       id="t">
      <path
         d="m663.04 1078.6-1.808-3.514-21.07-47.453c13.336-18.439 48.336-26.938 73.836-3.439 0.842 0 6.476 6.246 6 7l-18.386 25.895c-0.483 0.765-1.453 0.946-2.177 0.431l-15.505-11.011c-0.359-0.255-0.847-0.153-1.07 0.238l-18.272 31.869c-0.218 0.384-0.502 0.578-0.782 0.578-0.282 0-0.561-0.197-0.766-0.594"
         id="path94" />
    </clipPath>
    <clipPath
       id="s">
      <path
         d="m127 820.24h100v100h-100z"
         id="path97" />
    </clipPath>
    <clipPath
       id="r">
      <path
         d="m809 680.24c0-22.092 17.908-40 40-40s40 17.908 40 40c0 22.091-17.908 40-40 40s-40-17.909-40-40"
         id="path100" />
    </clipPath>
    <clipPath
       id="q">
      <path
         d="m658 469.24h44v45h-44z"
         id="path103" />
    </clipPath>
    <clipPath
       id="p">
      <path
         d="m651 271.24h58v58h-58z"
         id="path106" />
    </clipPath>
    <clipPath
       id="o">
      <path
         d="m662 307.24h38v8h-38z"
         id="path109" />
    </clipPath>
    <clipPath
       id="n">
      <path
         d="m858.98 137.24c0.013-0.101 0.021-0.203 0.021-0.307v-6.693h15.75c1.237 0 2.25-1.013 2.25-2.25v-11.25l-27-4.5-27 4.5v-2.25l27-4.5 27 4.5v-27c0-1.237-1.013-2.25-2.25-2.25h-49.5c-1.237 0-2.25 1.013-2.25 2.25v-4.25h54v54zm-35.979 0v-9.25c0 1.237 1.013 2.25 2.25 2.25h15.75v6.693c0 0.104 7e-3 0.207 0.02 0.307zm22.5-7h9v4.5h-9zm1.125-9c-0.62 0-1.125-0.506-1.125-1.125v-2.25c0-0.619 0.505-1.125 1.125-1.125h6.75c0.619 0 1.125 0.506 1.125 1.125v2.25c0 0.619-0.506 1.125-1.125 1.125z"
         id="path112" />
    </clipPath>
    <clipPath
       id="m">
      <path
         d="m531.27 136.24c6.325-2.29 10.727-8.277 10.727-15.484 0-11.316-10.2-20.563-25.65-34.575l-4.35-3.941-4.35 3.941c-15.45 14.012-25.65 23.259-25.65 34.575v-39.516h60v55zm-26.983 0c2.995-1.052 5.686-2.883 7.71-5.25 2.024 2.367 4.715 4.198 7.71 5.25zm-22.29 0v-15.484c0 7.207 4.402 13.194 10.727 15.484z"
         id="path115" />
    </clipPath>
    <clipPath
       id="l">
      <path
         d="m648 79.241h64v64h-64z"
         id="path118" />
    </clipPath>
    <clipPath
       id="k">
      <path
         d="m500 691.74c0-3.037 2.463-5.5 5.5-5.5s5.5 2.463 5.5 5.5-2.463 5.5-5.5 5.5-5.5-2.463-5.5-5.5"
         id="path121" />
    </clipPath>
    <clipPath
       id="j">
      <path
         d="m500 669.74c0-3.037 2.463-5.5 5.5-5.5s5.5 2.463 5.5 5.5c0 3.038-2.463 5.5-5.5 5.5s-5.5-2.462-5.5-5.5"
         id="path124" />
    </clipPath>
    <clipPath
       id="i">
      <path
         d="m494 680.74c0-3.037 2.462-5.5 5.5-5.5s5.5 2.463 5.5 5.5c0 3.038-2.462 5.5-5.5 5.5s-5.5-2.462-5.5-5.5"
         id="path127" />
    </clipPath>
    <clipPath
       id="h">
      <path
         d="m513 691.74c0-3.037 2.463-5.5 5.5-5.5s5.5 2.463 5.5 5.5-2.463 5.5-5.5 5.5-5.5-2.463-5.5-5.5"
         id="path130" />
    </clipPath>
    <clipPath
       id="g">
      <path
         d="m513 669.74c0-3.037 2.463-5.5 5.5-5.5s5.5 2.463 5.5 5.5c0 3.038-2.463 5.5-5.5 5.5s-5.5-2.462-5.5-5.5"
         id="path133" />
    </clipPath>
    <clipPath
       id="f">
      <path
         d="m507 680.74c0-3.037 2.463-5.5 5.5-5.5s5.5 2.463 5.5 5.5c0 3.038-2.463 5.5-5.5 5.5s-5.5-2.462-5.5-5.5"
         id="path136" />
    </clipPath>
    <clipPath
       id="e">
      <path
         d="m520 680.74c0-3.037 2.463-5.5 5.5-5.5s5.5 2.463 5.5 5.5c0 3.038-2.463 5.5-5.5 5.5s-5.5-2.462-5.5-5.5"
         id="path139" />
    </clipPath>
    <clipPath
       id="d">
      <path
         d="m321 322.24c-4.97 0-9-4.029-9-9 0-4.97 4.03-9 9-9h45c4.971 0 9 4.03 9 9 0 4.971-4.029 9-9 9z"
         id="path142" />
    </clipPath>
    <clipPath
       id="c">
      <path
         d="m322 297.24c-4.971 0-9-4.029-9-9 0-4.97 4.029-9 9-9h45c4.971 0 9 4.03 9 9 0 4.971-4.029 9-9 9z"
         id="path145" />
    </clipPath>
    <clipPath
       id="b">
      <path
         d="m155 83.24h44v53h-44z"
         id="path148" />
    </clipPath>
    <linearGradient
       id="linearGradient1030"
       inkscape:collect="always">
      <stop
         id="stop1026"
         offset="0"
         style="stop-color:#222627;stop-opacity:1" />
      <stop
         style="stop-color:#3c4444;stop-opacity:1"
         offset="0.31097987"
         id="stop1042" />
      <stop
         style="stop-color:#3d4546;stop-opacity:1"
         offset="0.3605985"
         id="stop1038" />
      <stop
         id="stop1040"
         offset="0.42675668"
         style="stop-color:#3b4344;stop-opacity:1" />
      <stop
         style="stop-color:#272c2d;stop-opacity:1"
         offset="0.66658008"
         id="stop1036" />
      <stop
         style="stop-color:#2e3436;stop-opacity:1"
         offset="0.86663204"
         id="stop1034" />
      <stop
         id="stop1028"
         offset="1"
         style="stop-color:#2d3335;stop-opacity:0.98039216" />
    </linearGradient>
    <linearGradient
       id="linearGradient994"
       inkscape:collect="always">
      <stop
         id="stop990"
         offset="0"
         style="stop-color:#363d3f;stop-opacity:0.96078432" />
      <stop
         style="stop-color:#252a2b;stop-opacity:1"
         offset="0.11633665"
         id="stop1006" />
      <stop
         style="stop-color:#2d3334;stop-opacity:1"
         offset="0.30198023"
         id="stop1004" />
      <stop
         style="stop-color:#383e40;stop-opacity:1"
         offset="0.45049506"
         id="stop1002" />
      <stop
         style="stop-color:#3c4444;stop-opacity:1"
         offset="0.62376237"
         id="stop1000" />
      <stop
         style="stop-color:#343b3c;stop-opacity:1"
         offset="0.8019802"
         id="stop998" />
      <stop
         id="stop992"
         offset="1"
         style="stop-color:#212526;stop-opacity:1" />
    </linearGradient>
    <linearGradient
       id="linearGradient967"
       inkscape:collect="always">
      <stop
         id="stop963"
         offset="0"
         style="stop-color:#1e2631;stop-opacity:0.99215686" />
      <stop
         id="stop965"
         offset="1"
         style="stop-color:#3c4444;stop-opacity:1" />
    </linearGradient>
    <linearGradient
       id="linearGradient938"
       inkscape:collect="always">
      <stop
         id="stop934"
         offset="0"
         style="stop-color:#222728;stop-opacity:1;" />
      <stop
         style="stop-color:#353d3d;stop-opacity:1"
         offset="0.29399422"
         id="stop948" />
      <stop
         style="stop-color:#3b4344;stop-opacity:1"
         offset="0.46309805"
         id="stop944" />
      <stop
         id="stop946"
         offset="0.61370611"
         style="stop-color:#33383a;stop-opacity:1" />
      <stop
         style="stop-color:#262b2c;stop-opacity:1"
         offset="0.79866344"
         id="stop942" />
      <stop
         id="stop936"
         offset="1"
         style="stop-color:#31393a;stop-opacity:1" />
    </linearGradient>
    <linearGradient
       id="linearGradient879"
       inkscape:collect="always">
      <stop
         id="stop875"
         offset="0"
         style="stop-color:#000000;stop-opacity:1;" />
      <stop
         id="stop877"
         offset="1"
         style="stop-color:#000000;stop-opacity:0" />
    </linearGradient>
    <linearGradient
       id="linearGradient825"
       inkscape:collect="always">
      <stop
         id="stop821"
         offset="0"
         style="stop-color:#eeeeed;stop-opacity:0.99607843" />
      <stop
         style="stop-color:#7b7671;stop-opacity:1"
         offset="0.05690984"
         id="stop833" />
      <stop
         id="stop839"
         offset="0.16020119"
         style="stop-color:#e5e6e1;stop-opacity:1" />
      <stop
         style="stop-color:#858887;stop-opacity:1"
         offset="0.33116493"
         id="stop841" />
      <stop
         id="stop853"
         offset="0.4313257"
         style="stop-color:#d3d3d4;stop-opacity:1" />
      <stop
         id="stop845"
         offset="0.45636588"
         style="stop-color:#bcbbb8;stop-opacity:1" />
      <stop
         id="stop843"
         offset="0.51059771"
         style="stop-color:#f7f7f3;stop-opacity:1" />
      <stop
         style="stop-color:#a5a5a6;stop-opacity:1"
         offset="0.52738303"
         id="stop851" />
      <stop
         style="stop-color:#6f6a65;stop-opacity:1"
         offset="0.5557909"
         id="stop847" />
      <stop
         id="stop849"
         offset="0.61206746"
         style="stop-color:#d1d0cb;stop-opacity:1" />
      <stop
         id="stop835"
         offset="0.69984841"
         style="stop-color:#efefeb;stop-opacity:1" />
      <stop
         style="stop-color:#959897;stop-opacity:1"
         offset="0.84390599"
         id="stop837" />
      <stop
         style="stop-color:#b1b1b2;stop-opacity:1"
         offset="0.95123124"
         id="stop829" />
      <stop
         id="stop823"
         offset="1"
         style="stop-color:#c3c3c3;stop-opacity:1" />
    </linearGradient>
    <linearGradient
       gradientTransform="translate(-60.336857,0.80357)"
       gradientUnits="userSpaceOnUse"
       y2="101.25722"
       x2="350.01074"
       y1="101.25722"
       x1="245.03838"
       id="linearGradient827"
       xlink:href="#linearGradient825"
       inkscape:collect="always" />
    <linearGradient
       gradientTransform="translate(123.61912,-1.849968)"
       gradientUnits="userSpaceOnUse"
       y2="94.198753"
       x2="112.8784"
       y1="91.737785"
       x1="112.8784"
       id="linearGradient881"
       xlink:href="#linearGradient879"
       inkscape:collect="always" />
    <linearGradient
       gradientUnits="userSpaceOnUse"
       y2="77.005058"
       x2="99.933044"
       y1="77.005058"
       x1="77.489861"
       id="linearGradient940"
       xlink:href="#linearGradient938"
       inkscape:collect="always" />
    <linearGradient
       gradientUnits="userSpaceOnUse"
       y2="73.590233"
       x2="87.573013"
       y1="70.02845"
       x1="87.573013"
       id="linearGradient969"
       xlink:href="#linearGradient967"
       inkscape:collect="always" />
    <linearGradient
       gradientTransform="translate(125.24253)"
       gradientUnits="userSpaceOnUse"
       y2="104.89893"
       x2="108.87561"
       y1="104.89893"
       x1="60.960854"
       id="linearGradient996"
       xlink:href="#linearGradient994"
       inkscape:collect="always" />
    <linearGradient
       gradientTransform="matrix(-1,0,0,1,350.7028,0)"
       y2="104.89893"
       x2="108.87561"
       y1="104.89893"
       x1="60.960854"
       gradientUnits="userSpaceOnUse"
       id="linearGradient1010"
       xlink:href="#linearGradient994"
       inkscape:collect="always" />
    <linearGradient
       gradientTransform="translate(125.00533,0.25159047)"
       gradientUnits="userSpaceOnUse"
       y2="144.59795"
       x2="164.14363"
       y1="144.59795"
       x1="123.57976"
       id="linearGradient1032"
       xlink:href="#linearGradient1030"
       inkscape:collect="always" />
    <linearGradient
       gradientTransform="translate(61.701237)"
       y2="144.59795"
       x2="164.14363"
       y1="144.59795"
       x1="123.57976"
       gradientUnits="userSpaceOnUse"
       id="linearGradient1046"
       xlink:href="#linearGradient1030"
       inkscape:collect="always" />
    <linearGradient
       inkscape:collect="always"
       xlink:href="#linearGradient967"
       id="linearGradient5383"
       gradientUnits="userSpaceOnUse"
       x1="87.573013"
       y1="70.02845"
       x2="87.573013"
       y2="73.590233" />
    <linearGradient
       inkscape:collect="always"
       xlink:href="#linearGradient938"
       id="linearGradient5385"
       gradientUnits="userSpaceOnUse"
       x1="77.489861"
       y1="77.005058"
       x2="99.933044"
       y2="77.005058" />
  </defs>
  <circle
     style="fill:#5e4aa6;stroke-width:0.26458001"
     id="circle153"
     r="0"
     cy="-328.38199"
     cx="-330.35001" />
  <circle
     style="fill:#5e4aa6;fill-rule:evenodd;stroke-width:0.26458001"
     id="ellipse155"
     r="0"
     cy="6.4400096"
     cx="-39.433998" />
  <g
     id="g163"
     transform="matrix(0.35278,0,0,-0.35278,152.63,244.95)">
    <g
       id="g161"
       clip-path="url(#aw)">
      <g
         id="g159"
         transform="translate(448,326)">
        <path
           style="fill:#ffffff;fill-rule:evenodd"
           inkscape:connector-curvature="0"
           id="path157"
           d="M 0,0 C 3.866,0 7,3.134 7,7 7,10.866 3.866,14 0,14 -3.866,14 -7,10.866 -7,7 -7,3.134 -3.866,0 0,0" />
      </g>
    </g>
  </g>
  <g
     id="g171"
     transform="matrix(0.35278,0,0,-0.35278,152.63,244.95)">
    <g
       id="g169"
       clip-path="url(#av)">
      <g
         id="g167"
         transform="translate(474,326)">
        <path
           style="fill:#ffffff;fill-rule:evenodd"
           inkscape:connector-curvature="0"
           id="path165"
           d="M 0,0 C 3.866,0 7,3.134 7,7 7,10.866 3.866,14 0,14 -3.866,14 -7,10.866 -7,7 -7,3.134 -3.866,0 0,0" />
      </g>
    </g>
  </g>
  <g
     id="g179"
     transform="matrix(0.35278,0,0,-0.35278,152.63,244.95)">
    <g
       id="g177"
       clip-path="url(#au)">
      <g
         id="g175"
         transform="translate(497,326)">
        <path
           style="fill:#ffffff;fill-rule:evenodd"
           inkscape:connector-curvature="0"
           id="path173"
           d="M 0,0 C 3.866,0 7,3.134 7,7 7,10.866 3.866,14 0,14 -3.866,14 -7,10.866 -7,7 -7,3.134 -3.866,0 0,0" />
      </g>
    </g>
  </g>
  <g
     id="g185"
     transform="matrix(0.35278,0,0,-0.35278,152.63,244.95)">
    <g
       id="g183"
       clip-path="url(#at)">
      <path
         style="fill:#ffffff;fill-rule:evenodd"
         inkscape:connector-curvature="0"
         id="path181"
         d="m 593,1073 h 36 v -18 h -36 z m 18,-11 c 6.075,0 11,0.895 11,2 0,1.105 -4.925,2 -11,2 -6.075,0 -11,-0.895 -11,-2 0,-1.105 4.925,-2 11,-2" />
    </g>
  </g>
  <g
     id="g193"
     transform="matrix(0.35278,0,0,-0.35278,152.63,244.95)">
    <g
       id="g191"
       clip-path="url(#as)">
      <g
         id="g189"
         transform="translate(583.42,1063)">
        <path
           style="fill:#ffffff"
           inkscape:connector-curvature="0"
           id="path187"
           d="M 0,0 C 0,0 21.582,23.182 21.582,35.147 21.582,47.195 11.898,57 0,57 c -11.816,0 -21.418,-9.805 -21.418,-21.853 0,-8.06 9.766,-21.188 16.002,-28.832 z m 0,42.542 c 3.938,0 7.14,-3.323 7.14,-7.395 0,-3.822 -3.202,-7.146 -7.14,-7.146 -3.856,0 -7.222,3.324 -7.222,7.146 0,4.072 3.366,7.395 7.222,7.395" />
      </g>
    </g>
  </g>
  <g
     id="g201"
     transform="matrix(0.35278,0,0,-0.35278,152.63,244.95)">
    <g
       id="g199"
       clip-path="url(#ar)">
      <g
         id="g197"
         transform="translate(562,535)">
        <path
           style="fill:#ffffff;fill-rule:evenodd"
           inkscape:connector-curvature="0"
           id="path195"
           d="m 0,0 h 35 c 2.762,0 5,-2.238 5,-5 0,-2.762 -2.238,-5 -5,-5 H 0 c -2.762,0 -5,2.238 -5,5 0,2.762 2.238,5 5,5" />
      </g>
    </g>
  </g>
  <g
     id="g209"
     transform="matrix(0.35278,0,0,-0.35278,152.63,244.95)">
    <g
       id="g207"
       clip-path="url(#aq)">
      <g
         id="g205"
         transform="translate(562,518)">
        <path
           style="fill:#ffffff;fill-rule:evenodd"
           inkscape:connector-curvature="0"
           id="path203"
           d="m 0,0 h 35 c 2.762,0 5,-2.238 5,-5 0,-2.762 -2.238,-5 -5,-5 H 0 c -2.762,0 -5,2.238 -5,5 0,2.762 2.238,5 5,5" />
      </g>
    </g>
  </g>
  <g
     id="g217"
     transform="matrix(0.35278,0,0,-0.35278,152.63,244.95)">
    <g
       id="g215"
       clip-path="url(#ap)">
      <g
         id="g213"
         transform="translate(536.43,133.83)">
        <path
           style="fill:#ffffff"
           inkscape:connector-curvature="0"
           id="path211"
           d="M 0,0 C -10.01,-12.916 -22.288,-9.047 -24.23,-8.072 -29.077,-6.779 -30.694,1.943 -24.556,4.846 -14.538,8.072 -5.496,4.521 0.968,1.293 0.324,0.326 0,0 0,0 m 10.667,3.553 c 4.521,8.072 6.139,15.826 6.139,15.826 H 1.617 v 5.812 h 17.767 v 2.26 H 1.617 v 8.723 h -8.074 v -8.723 h -16.156 v -2.584 h 16.156 v -5.812 h -13.57 V 16.47 H 7.756 c 0,-0.325 0,-0.325 -0.324,-0.968 0,-2.909 -1.936,-6.779 -3.554,-10.014 -20.677,8.079 -26.491,3.235 -28.108,2.584 -13.564,-9.689 -0.968,-21.963 1.293,-21.638 14.538,-3.227 23.905,2.91 30.369,10.657 0.324,-0.325 0.967,-0.325 1.292,-0.325 4.528,-2.578 25.848,-12.592 25.848,-12.592 V -3.552 C 30.694,-3.227 19.066,0.643 10.667,3.553" />
      </g>
    </g>
  </g>
  <g
     id="g225"
     transform="matrix(0.35278,0,0,-0.35278,152.63,244.95)">
    <g
       id="g223"
       clip-path="url(#ao)">
      <g
         id="g221"
         transform="translate(720.03,1091.5)">
        <path
           style="fill:#ffffff"
           inkscape:connector-curvature="0"
           id="path219"
           d="m 0,0 c -0.149,0.354 -0.224,0.837 -0.224,1.451 0,0.372 0.103,0.828 0.306,1.368 0.205,0.539 0.428,0.958 0.671,1.256 -0.019,0.409 0.051,0.902 0.209,1.478 0.159,0.576 0.368,0.976 0.629,1.2 0,2.586 0.86,5.269 2.581,8.05 1.722,2.782 3.744,4.73 6.07,5.846 2.585,1.228 5.6,1.842 9.041,1.842 2.475,0 4.949,-0.511 7.423,-1.534 0.912,-0.391 1.749,-0.837 2.512,-1.34 0.762,-0.502 1.423,-1.022 1.981,-1.562 0.559,-0.54 1.07,-1.172 1.534,-1.897 0.465,-0.725 0.856,-1.413 1.172,-2.064 0.318,-0.651 0.619,-1.437 0.908,-2.358 0.287,-0.921 0.524,-1.753 0.71,-2.497 0.186,-0.744 0.391,-1.655 0.614,-2.734 l 0.028,-0.14 C 37.188,4.822 37.7,3.426 37.7,2.179 37.7,1.919 37.616,1.547 37.448,1.064 37.28,0.58 37.196,0.227 37.196,0.003 c 0,-0.019 0.015,-0.052 0.043,-0.099 0.028,-0.047 0.061,-0.093 0.098,-0.139 0.038,-0.046 0.057,-0.077 0.057,-0.098 1.432,-2.121 2.553,-4.116 3.363,-5.985 0.809,-1.869 1.214,-3.808 1.214,-5.817 0,-0.8 -0.182,-1.73 -0.544,-2.791 -0.363,-1.06 -0.879,-1.59 -1.549,-1.59 -0.167,0 -0.349,0.069 -0.544,0.209 -0.194,0.14 -0.371,0.303 -0.529,0.489 -0.159,0.186 -0.335,0.428 -0.53,0.725 -0.195,0.297 -0.344,0.543 -0.447,0.739 -0.103,0.196 -0.228,0.438 -0.377,0.725 -0.147,0.288 -0.231,0.451 -0.251,0.489 -0.019,0.019 -0.047,0.028 -0.085,0.028 l -0.138,-0.111 c -1.099,-2.864 -2.327,-4.938 -3.684,-6.222 0.372,-0.372 0.944,-0.73 1.716,-1.075 0.772,-0.345 1.414,-0.73 1.925,-1.158 0.511,-0.426 0.841,-1.031 0.991,-1.814 -0.037,-0.074 -0.074,-0.223 -0.112,-0.447 -0.036,-0.224 -0.101,-0.391 -0.195,-0.501 -1.19,-1.804 -4,-2.706 -8.427,-2.706 -0.986,0 -2.013,0.084 -3.084,0.251 -1.069,0.168 -1.981,0.354 -2.734,0.558 -0.753,0.204 -1.726,0.483 -2.916,0.837 -0.279,0.093 -0.493,0.158 -0.643,0.196 -0.259,0.075 -0.687,0.115 -1.282,0.125 -0.595,0.009 -0.967,0.023 -1.116,0.042 -0.763,-0.838 -1.949,-1.442 -3.559,-1.814 -1.609,-0.372 -3.176,-0.558 -4.702,-0.558 -0.65,0 -1.293,0.014 -1.925,0.042 -0.632,0.028 -1.498,0.113 -2.595,0.252 -1.098,0.139 -2.038,0.33 -2.82,0.572 -0.781,0.241 -1.473,0.613 -2.078,1.115 -0.604,0.502 -0.906,1.098 -0.906,1.786 0,0.744 0.093,1.298 0.279,1.661 0.187,0.364 0.569,0.815 1.144,1.353 0.205,0.038 0.581,0.159 1.131,0.363 0.549,0.204 1.009,0.316 1.381,0.334 0.074,0 0.204,0.019 0.39,0.057 0.038,0.037 0.057,0.074 0.057,0.111 l -0.057,0.084 c -0.892,0.204 -1.897,1.185 -3.014,2.944 -1.117,1.758 -1.796,3.214 -2.038,4.367 l -0.139,0.084 c -0.074,0 -0.186,-0.185 -0.334,-0.557 -0.335,-0.763 -0.842,-1.455 -1.521,-2.079 -0.679,-0.622 -1.4,-0.971 -2.163,-1.046 h -0.028 c -0.073,0 -0.129,0.041 -0.167,0.125 -0.037,0.083 -0.084,0.134 -0.139,0.153 -0.428,1.004 -0.642,1.934 -0.642,2.79 0,5.116 2.343,9.45 7.032,13.002 z" />
      </g>
    </g>
  </g>
  <g
     id="g233"
     transform="matrix(0.35278,0,0,-0.35278,152.63,244.95)">
    <g
       id="g231"
       clip-path="url(#an)">
      <g
         id="g229"
         transform="translate(655,300)">
        <path
           style="fill:none;stroke:#ffffff;stroke-width:8;stroke-miterlimit:10"
           inkscape:connector-curvature="0"
           id="path227"
           stroke-miterlimit="10"
           d="M 0,0 C 16.568,0 30,13.432 30,30 30,46.568 16.568,60 0,60 -16.568,60 -30,46.568 -30,30 -30,13.432 -16.568,0 0,0 Z" />
      </g>
    </g>
  </g>
  <g
     id="g241"
     transform="matrix(0.35278,0,0,-0.35278,152.63,244.95)">
    <g
       id="g239"
       clip-path="url(#am)">
      <g
         id="g237"
         transform="translate(66.849,1083.1)">
        <path
           style="fill:#ffffff"
           inkscape:connector-curvature="0"
           id="path235"
           d="m 0,0 c 0,5.302 -3.661,9.749 -8.591,10.948 -0.209,8.314 -7.006,14.991 -15.366,14.991 -4.897,0 -9.254,-2.293 -12.07,-5.861 -1.579,2.041 -4.05,3.358 -6.828,3.358 -4.769,0 -8.633,-3.868 -8.633,-8.639 0,-0.416 0.031,-0.825 0.089,-1.224 -0.726,0.13 -1.47,0.203 -2.232,0.203 -6.913,0 -12.515,-5.607 -12.515,-12.524 0,-6.916 5.602,-12.523 12.515,-12.523 h 42.394 c 6.21,0.013 11.241,5.053 11.241,11.269 z" />
      </g>
    </g>
  </g>
  <g
     id="g249"
     transform="matrix(0.35278,0,0,-0.35278,152.63,244.95)">
    <g
       id="g247"
       clip-path="url(#al)">
      <g
         id="g245"
         transform="translate(65.5,681)">
        <path
           style="fill:none;stroke:#ffffff;stroke-width:4;stroke-miterlimit:10"
           inkscape:connector-curvature="0"
           id="path243"
           stroke-miterlimit="10"
           d="M 0,0 C 9.113,0 16.5,7.387 16.5,16.5 16.5,25.613 9.113,33 0,33 -9.113,33 -16.5,25.613 -16.5,16.5 -16.5,7.387 -9.113,0 0,0 Z" />
      </g>
    </g>
  </g>
  <g
     id="g257"
     transform="matrix(0.35278,0,0,-0.35278,152.63,244.95)">
    <g
       id="g255"
       clip-path="url(#ak)">
      <g
         id="g253"
         transform="translate(77.5,711)">
        <path
           style="fill:none;stroke:#ffffff;stroke-width:4;stroke-miterlimit:10"
           inkscape:connector-curvature="0"
           id="path251"
           stroke-miterlimit="10"
           d="M 0,0 C 7.456,0 13.5,6.044 13.5,13.5 13.5,20.956 7.456,27 0,27 -7.456,27 -13.5,20.956 -13.5,13.5 -13.5,6.044 -7.456,0 0,0 Z" />
      </g>
    </g>
  </g>
  <g
     id="g265"
     transform="matrix(0.35278,0,0,-0.35278,152.63,244.95)">
    <g
       id="g263"
       clip-path="url(#aj)">
      <g
         id="g261"
         transform="translate(455.91,931.53)">
        <path
           style="fill:#ffffff"
           inkscape:connector-curvature="0"
           id="path259"
           d="m 0,0 c -0.742,-1.039 -4.75,-2.821 -8.165,-3.563 -4.305,-0.891 -6.531,-1.633 -8.758,-2.82 -2.969,-1.782 -4.601,-4.009 -4.305,-6.087 0.149,-0.445 3.711,-5.64 7.868,-11.578 4.304,-5.938 7.868,-10.985 8.016,-11.134 0.149,-0.297 -0.445,-0.297 -2.524,-0.148 -6.531,0.445 -12.469,-2.969 -15.142,-8.314 -0.742,-1.632 -0.89,-2.523 -0.89,-4.453 0,-4.453 2.376,-8.016 6.829,-10.094 1.781,-0.742 2.375,-0.891 6.086,-0.891 4.007,0 4.156,0 6.829,1.336 7.125,3.414 10.093,10.095 7.125,16.181 -0.594,1.336 -4.305,7.719 -8.313,14.251 l -7.274,12.024 h 1.187 c 4.75,0.297 8.017,1.781 10.244,4.305 1.929,2.227 2.523,4.453 2.374,8.016 C 1.039,0.297 0.742,1.039 0,0" />
      </g>
    </g>
  </g>
  <g
     id="g273"
     transform="matrix(0.35278,0,0,-0.35278,152.63,244.95)">
    <g
       id="g271"
       clip-path="url(#ai)">
      <g
         id="g269"
         transform="translate(784,902.31)">
        <path
           style="fill:#ffffff"
           inkscape:connector-curvature="0"
           id="path267"
           d="m 0,0 c 0,-1.565 -0.904,-2.931 -2.251,-3.674 l -27.781,-18.472 c -0.012,-0.008 -0.026,-0.014 -0.037,-0.02 l -0.017,-0.011 c -0.684,-0.376 -1.48,-0.592 -2.331,-0.592 -2.53,0 -4.583,1.913 -4.583,4.269 v 37 c 0,2.356 2.053,4.27 4.583,4.27 0.851,0 1.647,-0.217 2.331,-0.596 l 0.017,-0.008 c 0.011,-0.009 0.022,-0.014 0.037,-0.02 L -2.251,3.675 C -0.904,2.932 0,1.565 0,0" />
      </g>
    </g>
  </g>
  <g
     id="g281"
     transform="matrix(0.35278,0,0,-0.35278,152.63,244.95)">
    <g
       id="g279"
       clip-path="url(#ah)">
      <g
         id="g277"
         transform="translate(223.75,708.35)">
        <path
           style="fill:#ffffff;fill-rule:evenodd"
           inkscape:connector-curvature="0"
           id="path275"
           d="m 0,0 c -15.123,0 -27.418,12.329 -27.418,27.486 0,1.382 1.111,2.505 2.487,2.505 1.379,0 2.499,-1.123 2.499,-2.505 0,-12.4 10.06,-22.487 22.432,-22.487 12.375,0 22.443,10.087 22.443,22.487 0,1.382 1.112,2.505 2.488,2.505 1.378,0 2.499,-1.123 2.499,-2.505 C 27.43,12.329 15.126,0 0,0" />
      </g>
    </g>
  </g>
  <g
     id="g289"
     transform="matrix(0.35278,0,0,-0.35278,152.63,244.95)">
    <g
       id="g287"
       clip-path="url(#ag)">
      <g
         id="g285"
         transform="translate(390.75,139.35)">
        <path
           style="fill:#ffffff;fill-rule:evenodd"
           inkscape:connector-curvature="0"
           id="path283"
           d="m 0,0 c -15.123,0 -27.418,12.329 -27.418,27.485 0,1.383 1.111,2.506 2.487,2.506 1.379,0 2.499,-1.123 2.499,-2.506 0,-12.398 10.06,-22.486 22.432,-22.486 12.375,0 22.443,10.088 22.443,22.486 0,1.383 1.112,2.506 2.488,2.506 1.378,0 2.499,-1.123 2.499,-2.506 C 27.43,12.329 15.126,0 0,0" />
      </g>
    </g>
  </g>
  <g
     id="g297"
     transform="matrix(0.35278,0,0,-0.35278,152.63,244.95)">
    <g
       id="g295"
       clip-path="url(#af)">
      <g
         id="g293"
         transform="translate(423.93,686.39)">
        <path
           style="fill:#ffffff"
           inkscape:connector-curvature="0"
           id="path291"
           d="m 0,0 c 0.245,-0.286 0.605,-0.456 0.986,-0.456 0.382,0 0.743,0.17 0.988,0.456 L 19.49,20.497 c 0.333,0.388 0.408,0.933 0.191,1.388 -0.211,0.463 -0.674,0.756 -1.184,0.756 h -9.93 c -2.118,4.172 -3.109,8.382 -2.973,12.63 0.135,4.248 1.954,12.361 5.455,24.34 C 0.093,53.021 -6.607,41.171 -6.607,28.386 v -5.745 h -9.93 c -0.51,0 -0.966,-0.293 -1.184,-0.756 -0.211,-0.462 -0.135,-1 0.191,-1.388 z" />
      </g>
    </g>
  </g>
  <g
     id="g305"
     transform="matrix(0.35278,0,0,-0.35278,117.46,286.15)">
    <g
       id="g303"
       clip-path="url(#ae)">
      <g
         id="g301"
         transform="translate(9.1685,1040.9)">
        <path
           style="fill:#ffffff;fill-rule:evenodd"
           inkscape:connector-curvature="0"
           id="path299"
           d="M 0,0 25.314,21.067 -0.763,39.718 c 5.846,7.671 15.079,12.622 25.468,12.622 17.673,0 32,-14.327 32,-32 0,-17.673 -14.327,-32 -32,-32 C 14.757,-11.66 5.869,-7.121 0,0 m 27.349,31.812 c 2.835,0 5.132,2.297 5.132,5.132 0,2.834 -2.297,5.132 -5.132,5.132 -2.834,0 -5.132,-2.298 -5.132,-5.132 0,-2.835 2.298,-5.132 5.132,-5.132" />
      </g>
    </g>
  </g>
  <g
     id="g313"
     transform="matrix(0.35278,0,0,-0.35278,117.46,286.15)">
    <g
       id="g311"
       clip-path="url(#ad)">
      <g
         id="g309"
         transform="translate(194.25,1130.3)">
        <path
           style="fill:#ffffff;fill-rule:evenodd"
           inkscape:connector-curvature="0"
           id="path307"
           d="M 0,0 C 20.173,-11.579 43.841,2 51.309,14.862 58.776,27.723 56.341,46 40.841,52.5 25.341,59 -4.646,59.111 -13.659,43.5 -22.672,27.889 -20.174,11.578 0,0" />
      </g>
    </g>
  </g>
  <g
     id="g321"
     transform="matrix(0.35278,0,0,-0.35278,117.46,286.15)">
    <g
       id="g319"
       clip-path="url(#ac)">
      <g
         id="g317"
         transform="translate(473.86,1057.5)">
        <path
           style="fill:#ffffff;fill-rule:evenodd"
           inkscape:connector-curvature="0"
           id="path315"
           d="M 0,0 C 1.657,0 3,1.501 3,3.353 3,5.205 1.657,6.706 0,6.706 -1.656,6.706 -3,5.205 -3,3.353 -3,1.501 -1.656,0 0,0" />
      </g>
    </g>
  </g>
  <g
     id="g329"
     transform="matrix(0.35278,0,0,-0.35278,117.46,286.15)">
    <g
       id="g327"
       clip-path="url(#ab)">
      <g
         id="g325"
         transform="translate(493,1069.8)">
        <path
           style="fill:#ffffff;fill-rule:evenodd"
           inkscape:connector-curvature="0"
           id="path323"
           d="M 0,0 C 1.657,0 3,1.501 3,3.353 3,5.205 1.657,6.706 0,6.706 -1.657,6.706 -3,5.205 -3,3.353 -3,1.501 -1.657,0 0,0" />
      </g>
    </g>
  </g>
  <g
     id="g337"
     transform="matrix(0.35278,0,0,-0.35278,117.46,286.15)">
    <g
       id="g335"
       clip-path="url(#aa)">
      <g
         id="g333"
         transform="translate(510,1048.8)">
        <path
           style="fill:#ffffff;fill-rule:evenodd"
           inkscape:connector-curvature="0"
           id="path331"
           d="M 0,0 C 1.657,0 3,1.501 3,3.353 3,5.205 1.657,6.706 0,6.706 -1.657,6.706 -3,5.205 -3,3.353 -3,1.501 -1.657,0 0,0" />
      </g>
    </g>
  </g>
  <g
     id="g345"
     transform="matrix(0.35278,0,0,-0.35278,117.46,286.15)">
    <g
       id="g343"
       clip-path="url(#z)">
      <g
         id="g341"
         transform="translate(806.5,1072.2)">
        <path
           style="fill:none;stroke:#ffffff;stroke-linecap:round;stroke-miterlimit:10"
           inkscape:connector-curvature="0"
           id="path339"
           stroke-miterlimit="10"
           d="M 0,0 C -3.667,-14 -9.5,-21.833 -17.5,-23.5" />
      </g>
    </g>
  </g>
  <g
     id="g353"
     transform="matrix(0.35278,0,0,-0.35278,117.46,286.15)">
    <g
       id="g351"
       clip-path="url(#y)">
      <g
         id="g349"
         transform="translate(802,1066.2)">
        <path
           style="fill:#ffffff;fill-rule:evenodd"
           inkscape:connector-curvature="0"
           id="path347"
           d="m 0,0 c -4.971,0 -9,4.029 -9,9 0,4.971 4.029,9 9,9 C 4.971,18 9,13.971 9,9 9,4.029 4.971,0 0,0 m 0,6 c 1.657,0 3,1.343 3,3 0,1.657 -1.343,3 -3,3 -1.657,0 -3,-1.343 -3,-3 0,-1.657 1.343,-3 3,-3" />
      </g>
    </g>
  </g>
  <g
     id="g361"
     transform="matrix(0.35278,0,0,-0.35278,117.46,286.15)">
    <g
       id="g359"
       clip-path="url(#x)">
      <g
         id="g357"
         transform="translate(122,495.24)">
        <path
           style="fill:#ffffff;fill-rule:evenodd"
           inkscape:connector-curvature="0"
           id="path355"
           d="M 0,0 H 3 C 3.553,0 4,-0.447 4,-1 V -3 C 4,-3.553 3.553,-4 3,-4 H 0 c -0.553,0 -1,0.447 -1,1 v 2 c 0,0.553 0.447,1 1,1" />
      </g>
    </g>
  </g>
  <g
     id="g369"
     transform="matrix(0.35278,0,0,-0.35278,117.46,286.15)">
    <g
       id="g367"
       clip-path="url(#w)">
      <g
         id="g365"
         transform="translate(204,495.24)">
        <path
           style="fill:#ffffff;fill-rule:evenodd"
           inkscape:connector-curvature="0"
           id="path363"
           d="M 0,0 H 3 C 3.553,0 4,-0.447 4,-1 V -3 C 4,-3.553 3.553,-4 3,-4 H 0 c -0.553,0 -1,0.447 -1,1 v 2 c 0,0.553 0.447,1 1,1" />
      </g>
    </g>
  </g>
  <g
     id="g377"
     transform="matrix(0.35278,0,0,-0.35278,117.46,286.15)">
    <g
       id="g375"
       clip-path="url(#v)">
      <g
         id="g373"
         transform="translate(805,482.24)">
        <path
           style="fill:#ffffff;fill-rule:evenodd"
           inkscape:connector-curvature="0"
           id="path371"
           d="M 0,0 C 4.418,0 8,3.582 8,8 8,12.418 4.418,16 0,16 -4.418,16 -8,12.418 -8,8 -8,3.582 -4.418,0 0,0" />
      </g>
    </g>
  </g>
  <g
     id="g385"
     transform="matrix(0.35278,0,0,-0.35278,117.46,286.15)">
    <g
       id="g383"
       clip-path="url(#u)">
      <g
         id="g381"
         transform="translate(658,1075.7)">
        <path
           style="fill:#ffffff"
           inkscape:connector-curvature="0"
           id="path379"
           d="M 0,0 C 0,-4.694 3.806,-8.5 8.5,-8.5 13.194,-8.5 17,-4.694 17,0 17,4.694 13.194,8.5 8.5,8.5 3.806,8.5 0,4.694 0,0" />
      </g>
    </g>
  </g>
  <g
     id="g391"
     transform="matrix(0.35278,0,0,-0.35278,117.46,286.15)">
    <g
       id="g389"
       clip-path="url(#t)">
      <path
         style="fill:#ffffff;fill-rule:evenodd"
         inkscape:connector-curvature="0"
         id="path387"
         d="m 465.44,1082.2 h 85.864 v -75.319 H 465.44 Z m 64.45,-25.106 c -0.483,0.765 -1.453,0.947 -2.178,0.431 l -15.504,-11.01 c -0.359,-0.255 -0.847,-0.153 -1.071,0.238 l -18.271,31.869 c -0.438,0.771 -1.139,0.776 -1.549,-0.016 l -1.807,-3.514 -21.07,-47.452 c 13.336,-18.44 48.336,-26.94 73.836,-3.44 0.841,0 6.477,6.246 6,7 z" />
    </g>
  </g>
  <g
     id="g399"
     transform="matrix(0.35278,0,0,-0.35278,117.46,286.15)">
    <g
       id="g397"
       clip-path="url(#s)">
      <g
         id="g395"
         transform="translate(-23,837.24)">
        <path
           style="fill:none;stroke:#ffffff;stroke-width:8;stroke-miterlimit:10"
           inkscape:connector-curvature="0"
           id="path393"
           stroke-miterlimit="10"
           d="M 0,0 C 18.778,0 34,15.222 34,34 34,52.778 18.778,68 0,68 -18.778,68 -34,52.778 -34,34 -34,15.222 -18.778,0 0,0 Z" />
      </g>
    </g>
  </g>
  <g
     id="g405"
     transform="matrix(0.35278,0,0,-0.35278,117.46,286.15)">
    <g
       id="g403"
       clip-path="url(#r)">
      <path
         style="fill:#ffffff;fill-rule:evenodd"
         inkscape:connector-curvature="0"
         id="path401"
         d="m 644,721.24 h 82 v -82 h -82 z m 41,-81 c 22.092,0 40,17.908 40,40 0,22.092 -17.908,40 -40,40 -22.092,0 -40,-17.908 -40,-40 0,-22.092 17.908,-40 40,-40" />
    </g>
  </g>
  <g
     id="g413"
     transform="matrix(0.35278,0,0,-0.35278,117.46,286.15)">
    <g
       id="g411"
       clip-path="url(#q)">
      <g
         id="g409"
         transform="translate(613.88,476.03)">
        <path
           style="fill:#ffffff"
           inkscape:connector-curvature="0"
           id="path407"
           d="m 0,0 c 0.187,-0.771 0.148,-1.502 -0.116,-2.193 -0.266,-0.692 -0.678,-1.303 -1.239,-1.833 -0.561,-0.531 -1.247,-0.949 -2.057,-1.255 -0.81,-0.305 -1.683,-0.457 -2.617,-0.457 -5.889,-0.033 -11.156,-0.049 -15.798,-0.049 h -15.891 c -1.122,0 -2.111,0.209 -2.968,0.627 -0.857,0.418 -1.543,0.932 -2.056,1.543 -0.515,0.611 -0.858,1.279 -1.029,2.002 -0.171,0.723 -0.148,1.375 0.071,1.953 0.186,0.451 0.373,0.917 0.56,1.398 0.157,0.418 0.343,0.893 0.561,1.424 0.219,0.53 0.452,1.069 0.701,1.615 l 1.776,4.438 h 5.329 l -2.01,-6.077 h 30.099 l -2.009,6.077 h 5.094 C -2.944,7.573 -2.353,6.094 -1.822,4.775 -1.604,4.197 -1.387,3.635 -1.168,3.088 -0.95,2.541 -0.756,2.051 -0.584,1.616 -0.413,1.183 -0.272,0.812 -0.163,0.507 -0.055,0.201 0,0.033 0,0 m -22.922,9.236 c -0.601,0.698 -1.289,1.571 -2.064,2.618 -0.776,1.046 -1.575,2.125 -2.398,3.235 -0.822,1.11 -1.637,2.204 -2.443,3.283 -0.808,1.079 -1.527,2.015 -2.16,2.808 -0.728,0.856 -1.013,1.562 -0.855,2.117 0.158,0.555 0.696,0.832 1.614,0.832 0.506,-0.031 1.187,-0.024 2.041,0.024 0.855,0.048 1.567,0.072 2.136,0.072 0.633,0 1.029,0.19 1.187,0.57 0.158,0.381 0.237,0.889 0.237,1.523 0,0.698 -0.008,1.467 -0.024,2.308 -0.016,0.841 -0.024,1.705 -0.024,2.593 0,0.888 -0.008,1.76 -0.023,2.617 -0.016,0.856 -0.024,1.65 -0.024,2.379 0,0.318 0.024,0.65 0.071,1 0.047,0.348 0.158,0.666 0.333,0.951 0.173,0.285 0.426,0.523 0.758,0.714 0.332,0.19 0.784,0.285 1.353,0.285 0.665,0 1.274,0.009 1.827,0.024 0.555,0.016 1.195,0.024 1.923,0.024 1.044,0 1.748,-0.246 2.112,-0.737 0.364,-0.492 0.562,-1.277 0.593,-2.356 v -1.855 c 0,-0.73 0.008,-1.507 0.023,-2.331 0.017,-0.826 0.025,-1.651 0.025,-2.475 v -2.236 c 0,-0.92 0.095,-1.659 0.284,-2.213 0.191,-0.555 0.617,-0.817 1.282,-0.785 0.475,0 1.052,-0.016 1.732,-0.047 0.68,-0.032 1.274,-0.049 1.78,-0.049 0.855,0 1.4,-0.23 1.638,-0.69 0.237,-0.46 0.071,-1.054 -0.498,-1.784 -0.602,-0.76 -1.298,-1.68 -2.089,-2.759 -0.791,-1.08 -1.606,-2.197 -2.445,-3.355 -0.838,-1.158 -1.661,-2.284 -2.467,-3.379 -0.807,-1.094 -1.528,-2.037 -2.16,-2.83 -0.57,-0.73 -1.116,-1.103 -1.637,-1.119 -0.523,-0.016 -1.069,0.326 -1.638,1.023" />
      </g>
    </g>
  </g>
  <g
     id="g421"
     transform="matrix(0.35278,0,0,-0.35278,117.46,286.15)">
    <g
       id="g419"
       clip-path="url(#p)">
      <g
         id="g417"
         transform="translate(588.67,331.24)">
        <path
           style="fill:#ffffff"
           inkscape:connector-curvature="0"
           id="path415"
           d="m 0,0 h -49.301 c -2.41,0 -4.367,-1.941 -4.367,-4.299 v -49.402 c 0,-2.393 1.957,-4.299 4.367,-4.299 H 0 c 2.41,0 4.332,1.941 4.332,4.299 V -4.334 C 4.332,-1.941 2.375,0 0,0 m -33.403,-53.008 h -8.839 v 6.795 h 8.839 z m -8.91,24.58 h 8.84 v -6.795 h -8.84 z m 8.945,-15.566 h -8.84 v 6.795 h 8.84 z m 12.998,-9.014 h -8.84 v 6.795 h 8.84 z m -8.91,24.58 h 8.84 v -6.795 h -8.84 z m 8.944,-15.566 h -8.839 v 6.795 h 8.839 z m 13.277,-9.014 h -8.84 v 6.795 h 8.84 z m -8.909,24.58 h 8.84 v -6.795 h -8.84 z m 8.945,-15.566 h -8.84 v 6.795 h 8.84 z m 5.276,24.441 c 0,-2.392 -1.957,-4.299 -4.368,-4.299 h -37.77 c -2.411,-0.035 -4.367,1.907 -4.367,4.299 v 10.054 c 0,2.392 1.956,4.333 4.332,4.333 h 37.805 c 2.411,0 4.368,-1.941 4.368,-4.333 z" />
      </g>
    </g>
  </g>
  <g
     id="g429"
     transform="matrix(0.35278,0,0,-0.35278,117.46,286.15)">
    <g
       id="g427"
       clip-path="url(#o)">
      <g
         id="g425"
         transform="translate(609.3,312.46)">
        <path
           style="fill:#ffffff"
           inkscape:connector-curvature="0"
           id="path423"
           d="m 0,0 h -0.72 c -0.206,0 -0.377,0 -0.514,-0.212 -0.103,-0.142 -0.103,-0.283 -0.103,-0.46 v -0.566 c 0,-0.178 0,-0.319 0.103,-0.461 0.137,-0.212 0.308,-0.212 0.514,-0.212 H 0 c 0.205,0 0.376,0 0.514,0.212 0.102,0.142 0.102,0.283 0.102,0.461 v 0.566 c 0,0.213 0,0.318 -0.102,0.46 C 0.376,0 0.239,0 0,0 M -5.003,4.779 H -7.95 c -0.548,0 -0.993,-0.46 -0.993,-1.026 V 1.346 h 0.993 v 2.407 h 2.947 V 1.346 h 0.993 v 2.407 c 0,0.566 -0.445,1.026 -0.993,1.026 m 0,-6.973 H -7.95 v 2.407 h -0.993 v -2.407 c 0,-0.567 0.411,-1.027 0.993,-1.027 h 2.947 c 0.582,0 0.993,0.46 0.993,1.027 v 2.407 h -0.993 z m -14.357,0 h -2.947 V 0.39 h -0.994 v -2.584 c 0,-0.567 0.411,-1.027 0.994,-1.027 h 2.947 c 0.583,0 0.994,0.46 0.994,1.027 V 0.39 h -0.994 z m 0,6.973 h -2.947 c -0.548,0 -0.994,-0.46 -0.994,-1.026 V 1.522 h 0.994 v 2.231 h 2.947 V 1.522 h 0.994 v 2.231 c 0,0.566 -0.446,1.026 -0.994,1.026 m 7.195,0 h -2.946 c -0.549,0 -0.994,-0.46 -0.994,-1.026 V 1.522 h 0.994 v 2.231 h 2.946 V 1.522 h 0.994 v 2.231 c 0,0.566 -0.445,1.026 -0.994,1.026 m 0,-6.973 h -2.946 V 0.39 h -0.994 v -2.584 c 0,-0.567 0.445,-1.027 0.994,-1.027 h 2.946 c 0.583,0 0.994,0.46 0.994,1.027 V 0.39 h -0.994 z M 6.51,4.779 H 3.563 C 3.015,4.779 2.569,4.319 2.569,3.753 V 1.169 H 3.563 V 3.753 H 6.51 V 1.169 h 0.994 v 2.584 c 0,0.566 -0.445,1.026 -0.994,1.026 m 0,-6.973 H 3.563 v 2.23 H 2.569 v -2.23 c 0,-0.567 0.446,-1.027 0.994,-1.027 H 6.51 c 0.583,0 0.994,0.46 0.994,1.027 v 2.23 H 6.51 Z m 7.195,0 h -2.946 v 2.053 H 9.765 v -2.053 c 0,-0.567 0.411,-1.027 0.994,-1.027 h 2.946 c 0.583,0 0.994,0.46 0.994,1.027 v 2.053 h -0.994 z m 0,6.973 h -2.946 c -0.548,0 -0.994,-0.46 -0.994,-1.026 V 0.992 h 0.994 v 2.761 h 2.946 V 0.992 h 0.994 v 2.761 c 0,0.566 -0.479,1.026 -0.994,1.026" />
      </g>
    </g>
  </g>
  <g
     id="g437"
     transform="matrix(0.35278,0,0,-0.35278,117.46,286.15)">
    <g
       id="g435"
       clip-path="url(#n)">
      <g
         id="g433"
         transform="translate(766.75,130.24)">
        <path
           style="fill:#ffffff"
           inkscape:connector-curvature="0"
           id="path431"
           d="M 0,0 H -15.75 V 6.693 C -15.75,7.932 -16.763,9 -18.057,9 H -31.443 C -32.682,9 -33.75,7.987 -33.75,6.693 V 0 H -49.5 c -1.237,0 -2.25,-1.013 -2.25,-2.25 V -13.5 l 27,-4.5 27,4.5 V -2.25 C 2.25,-1.013 1.237,0 0,0 m -29.25,4.5 h 9 V 0 h -9 z m 9,-16.875 c 0,-0.619 -0.506,-1.125 -1.125,-1.125 h -6.75 c -0.619,0 -1.125,0.506 -1.125,1.125 v 2.25 c 0,0.619 0.506,1.125 1.125,1.125 h 6.75 c 0.619,0 1.125,-0.506 1.125,-1.125 z m -4.5,-7.875 27,4.5 v -27 C 2.25,-43.987 1.237,-45 0,-45 h -49.5 c -1.237,0 -2.25,1.013 -2.25,2.25 v 27 z" />
      </g>
    </g>
  </g>
  <g
     id="g445"
     transform="matrix(0.35278,0,0,-0.35278,117.46,286.15)">
    <g
       id="g443"
       clip-path="url(#m)">
      <g
         id="g441"
         transform="translate(392,82.24)">
        <path
           style="fill:#ffffff"
           inkscape:connector-curvature="0"
           id="path439"
           d="M 0,0 -4.35,3.941 C -19.8,17.953 -30,27.2 -30,38.516 -30,47.762 -22.755,55 -13.5,55 -8.28,55 -3.27,52.572 0,48.75 3.27,52.572 8.28,55 13.5,55 22.755,55 30,47.762 30,38.516 30,27.2 19.8,17.953 4.35,3.941 Z" />
      </g>
    </g>
  </g>
  <g
     id="g453"
     transform="matrix(0.35278,0,0,-0.35278,117.46,286.15)">
    <g
       id="g451"
       clip-path="url(#l)">
      <g
         id="g449"
         transform="translate(542.77,113.24)">
        <path
           style="fill:#ffffff"
           inkscape:connector-curvature="0"
           id="path447"
           d="m 0,0 c 0,2.621 0.885,4.8 2.689,6.604 1.804,1.804 3.983,2.689 6.604,2.689 2.622,0 4.801,-0.885 6.604,-2.689 1.805,-1.804 2.69,-3.983 2.69,-6.604 0,-2.621 -0.885,-4.834 -2.69,-6.639 -1.803,-1.803 -3.982,-2.689 -6.604,-2.689 -2.621,0 -4.809,0.877 -6.604,2.689 C 0.876,-4.809 0,-2.588 0,0 m -13.141,-6.06 c 0.545,-1.94 1.363,-3.846 2.35,-5.617 l -6.128,-7.523 6.944,-6.945 7.524,6.127 c 1.769,-0.986 3.71,-1.803 5.65,-2.382 L 4.221,-32 h 10.008 l 1.022,9.6 c 1.94,0.579 3.778,1.396 5.651,2.382 l 7.49,-6.127 7.012,6.945 -6.162,7.523 c 0.953,1.771 1.805,3.677 2.383,5.617 l 9.601,1.056 V 5.004 l -9.601,1.021 c -0.578,1.941 -1.43,3.745 -2.383,5.618 l 6.162,7.523 -7.012,7.013 -7.49,-6.161 c -1.907,0.953 -3.711,1.803 -5.651,2.382 L 14.229,32 H 4.221 L 3.199,22.4 c -2.008,-0.579 -3.88,-1.429 -5.65,-2.382 l -7.524,6.161 -6.944,-7.013 6.128,-7.523 C -11.744,9.77 -12.562,7.966 -13.141,6.025 L -22.774,5.004 V -5.004 Z" />
      </g>
    </g>
  </g>
  <g
     id="g459"
     transform="matrix(0.35278,0,0,-0.35278,117.46,286.15)">
    <g
       id="g457"
       clip-path="url(#k)">
      <path
         style="fill:#ffffff;fill-rule:evenodd"
         inkscape:connector-curvature="0"
         id="path455"
         d="m 473,698.24 h 13 v -13 h -13 z m 6.5,-12 c 3.037,0 5.5,2.463 5.5,5.5 0,3.038 -2.463,5.5 -5.5,5.5 -3.037,0 -5.5,-2.462 -5.5,-5.5 0,-3.037 2.463,-5.5 5.5,-5.5" />
    </g>
  </g>
  <g
     id="g465"
     transform="matrix(0.35278,0,0,-0.35278,117.46,286.15)">
    <g
       id="g463"
       clip-path="url(#j)">
      <path
         style="fill:#ffffff;fill-rule:evenodd"
         inkscape:connector-curvature="0"
         id="path461"
         d="m 473,676.24 h 13 v -13 h -13 z m 6.5,-12 c 3.037,0 5.5,2.463 5.5,5.5 0,3.038 -2.463,5.5 -5.5,5.5 -3.037,0 -5.5,-2.462 -5.5,-5.5 0,-3.037 2.463,-5.5 5.5,-5.5" />
    </g>
  </g>
  <g
     id="g471"
     transform="matrix(0.35278,0,0,-0.35278,117.46,286.15)">
    <g
       id="g469"
       clip-path="url(#i)">
      <path
         style="fill:#ffffff;fill-rule:evenodd"
         inkscape:connector-curvature="0"
         id="path467"
         d="m 467,687.24 h 13 v -13 h -13 z m 6.5,-12 c 3.037,0 5.5,2.463 5.5,5.5 0,3.038 -2.463,5.5 -5.5,5.5 -3.037,0 -5.5,-2.462 -5.5,-5.5 0,-3.037 2.463,-5.5 5.5,-5.5" />
    </g>
  </g>
  <g
     id="g477"
     transform="matrix(0.35278,0,0,-0.35278,117.46,286.15)">
    <g
       id="g475"
       clip-path="url(#h)">
      <path
         style="fill:#ffffff;fill-rule:evenodd"
         inkscape:connector-curvature="0"
         id="path473"
         d="m 486,698.24 h 13 v -13 h -13 z m 6.5,-12 c 3.037,0 5.5,2.463 5.5,5.5 0,3.038 -2.463,5.5 -5.5,5.5 -3.037,0 -5.5,-2.462 -5.5,-5.5 0,-3.037 2.463,-5.5 5.5,-5.5" />
    </g>
  </g>
  <g
     id="g483"
     transform="matrix(0.35278,0,0,-0.35278,117.46,286.15)">
    <g
       id="g481"
       clip-path="url(#g)">
      <path
         style="fill:#ffffff;fill-rule:evenodd"
         inkscape:connector-curvature="0"
         id="path479"
         d="m 486,676.24 h 13 v -13 h -13 z m 6.5,-12 c 3.037,0 5.5,2.463 5.5,5.5 0,3.038 -2.463,5.5 -5.5,5.5 -3.037,0 -5.5,-2.462 -5.5,-5.5 0,-3.037 2.463,-5.5 5.5,-5.5" />
    </g>
  </g>
  <g
     id="g489"
     transform="matrix(0.35278,0,0,-0.35278,117.46,286.15)">
    <g
       id="g487"
       clip-path="url(#f)">
      <path
         style="fill:#ffffff;fill-rule:evenodd"
         inkscape:connector-curvature="0"
         id="path485"
         d="m 480,687.24 h 13 v -13 h -13 z m 6.5,-12 c 3.037,0 5.5,2.463 5.5,5.5 0,3.038 -2.463,5.5 -5.5,5.5 -3.037,0 -5.5,-2.462 -5.5,-5.5 0,-3.037 2.463,-5.5 5.5,-5.5" />
    </g>
  </g>
  <g
     id="g495"
     transform="matrix(0.35278,0,0,-0.35278,117.46,286.15)">
    <g
       id="g493"
       clip-path="url(#e)">
      <path
         style="fill:#ffffff;fill-rule:evenodd"
         inkscape:connector-curvature="0"
         id="path491"
         d="m 493,687.24 h 13 v -13 h -13 z m 6.5,-12 c 3.037,0 5.5,2.463 5.5,5.5 0,3.038 -2.463,5.5 -5.5,5.5 -3.037,0 -5.5,-2.462 -5.5,-5.5 0,-3.037 2.463,-5.5 5.5,-5.5" />
    </g>
  </g>
  <g
     id="g501"
     transform="matrix(0.35278,0,0,-0.35278,117.46,286.15)">
    <g
       id="g499"
       clip-path="url(#d)">
      <path
         style="fill:#ffffff;fill-rule:evenodd"
         inkscape:connector-curvature="0"
         id="path497"
         d="m 161,327.24 h 73 v -28 h -73 z m 14,-5 h 45 c 4.971,0 9,-4.029 9,-9 0,-4.97 -4.029,-9 -9,-9 h -45 c -4.971,0 -9,4.03 -9,9 0,4.971 4.029,9 9,9" />
    </g>
  </g>
  <g
     id="g507"
     transform="matrix(0.35278,0,0,-0.35278,117.46,286.15)">
    <g
       id="g505"
       clip-path="url(#c)">
      <path
         style="fill:#ffffff;fill-rule:evenodd"
         inkscape:connector-curvature="0"
         id="path503"
         d="m 162,302.24 h 73 v -28 h -73 z m 14,-5 h 45 c 4.971,0 9,-4.029 9,-9 0,-4.97 -4.029,-9 -9,-9 h -45 c -4.971,0 -9,4.03 -9,9 0,4.971 4.029,9 9,9" />
    </g>
  </g>
  <g
     id="g515"
     transform="matrix(0.35278,0,0,-0.35278,117.46,286.15)">
    <g
       id="g513"
       clip-path="url(#b)">
      <g
         id="g511"
         transform="translate(104.49,129.57)">
        <path
           style="fill:#ffffff"
           inkscape:connector-curvature="0"
           id="path509"
           d="m 0,0 c -4.298,-0.338 -8.165,-0.637 -11.604,-0.898 -1.458,-0.113 -2.906,-0.225 -4.344,-0.336 -1.44,-0.114 -2.747,-0.207 -3.924,-0.282 -1.178,-0.074 -2.168,-0.149 -2.972,-0.224 -0.803,-0.074 -1.28,-0.113 -1.428,-0.113 -0.188,-0.037 -0.403,-0.065 -0.645,-0.084 -0.244,-0.018 -0.459,-0.065 -0.645,-0.139 l -0.673,-0.225 -2.467,1.121 c 0.187,0.263 0.412,0.506 0.674,0.731 0.185,0.186 0.42,0.364 0.7,0.533 0.28,0.168 0.569,0.27 0.868,0.309 0.225,0.037 0.822,0.093 1.795,0.168 0.971,0.074 2.167,0.168 3.588,0.28 0,0.486 0.047,1.15 0.14,1.992 0.092,0.841 0.317,1.674 0.672,2.497 0.356,0.822 0.869,1.553 1.541,2.188 0.673,0.636 1.589,1.009 2.747,1.123 1.346,0.111 2.439,-0.094 3.281,-0.618 0.84,-0.523 1.494,-1.169 1.961,-1.935 0.467,-0.768 0.795,-1.553 0.981,-2.358 0.187,-0.804 0.299,-1.43 0.337,-1.878 1.606,0.111 2.942,0.205 4.008,0.279 1.064,0.076 1.653,0.131 1.765,0.169 0.412,0.038 0.87,-0.038 1.373,-0.225 0.505,-0.186 0.907,-0.43 1.206,-0.729 C -0.99,1.271 -0.888,1.158 -0.757,1.01 -0.626,0.859 -0.505,0.71 -0.392,0.561 -0.243,0.41 -0.112,0.224 0,0 m -15.528,6.676 c -0.709,-0.074 -1.28,-0.326 -1.709,-0.757 -0.43,-0.431 -0.758,-0.944 -0.982,-1.543 -0.223,-0.599 -0.374,-1.206 -0.448,-1.823 -0.075,-0.617 -0.112,-1.114 -0.112,-1.488 1.159,0.076 2.344,0.169 3.559,0.281 1.215,0.112 2.402,0.206 3.56,0.281 -0.037,0.336 -0.121,0.804 -0.252,1.402 -0.131,0.599 -0.346,1.178 -0.645,1.74 -0.299,0.561 -0.691,1.028 -1.176,1.403 -0.487,0.373 -1.084,0.542 -1.795,0.504 m 21.919,-41.24 c 0.186,-1.047 0.159,-1.917 -0.084,-2.61 -0.244,-0.691 -0.925,-1.168 -2.046,-1.43 -0.374,-0.113 -1.187,-0.299 -2.439,-0.562 -1.252,-0.262 -2.747,-0.579 -4.485,-0.953 -1.737,-0.374 -3.597,-0.777 -5.577,-1.207 -1.982,-0.43 -3.878,-0.832 -5.691,-1.205 -1.812,-0.375 -3.437,-0.711 -4.877,-1.011 -1.438,-0.3 -2.457,-0.505 -3.054,-0.617 -1.383,-0.3 -2.402,-0.206 -3.055,0.28 -0.654,0.486 -0.982,1.217 -0.982,2.189 v 34.452 c 0,0.934 0.197,1.691 0.589,2.271 0.393,0.58 0.962,0.889 1.709,0.926 0.299,0 0.664,0.02 1.094,0.057 0.43,0.037 0.85,0.074 1.261,0.112 0.485,0.037 0.991,0.075 1.514,0.112 l 0.504,-8.023 c -0.037,-0.038 -0.112,-0.057 -0.224,-0.057 -0.074,0 -0.187,-0.01 -0.336,-0.027 -0.15,-0.02 -0.318,-0.029 -0.505,-0.029 -0.784,-0.075 -1.159,-0.542 -1.121,-1.403 0.038,-0.336 0.075,-0.805 0.112,-1.402 0.037,-0.599 0.066,-1.225 0.084,-1.88 0.019,-0.655 0.047,-1.29 0.084,-1.907 0.037,-0.617 0.074,-1.114 0.113,-1.488 0.037,-0.711 0.149,-1.112 0.336,-1.206 0.186,-0.093 0.598,-0.14 1.233,-0.14 h 0.785 c 0.225,0 0.439,0.01 0.645,0.027 0.205,0.02 0.439,0.038 0.701,0.057 0.261,0.018 0.597,0.047 1.008,0.084 0.785,0.075 1.29,0.243 1.513,0.506 0.225,0.261 0.319,0.654 0.281,1.177 0,0.262 -0.028,0.721 -0.084,1.375 -0.056,0.655 -0.113,1.337 -0.168,2.048 -0.056,0.71 -0.103,1.384 -0.14,2.02 -0.037,0.635 -0.074,1.085 -0.112,1.346 -0.076,0.45 -0.168,0.768 -0.281,0.954 -0.112,0.187 -0.318,0.262 -0.617,0.224 -0.148,0 -0.299,-0.009 -0.447,-0.027 -0.151,-0.019 -0.3,-0.028 -0.449,-0.028 h -0.449 l -0.505,7.967 c 2.542,0.225 4.877,0.412 7.008,0.561 0.897,0.076 1.803,0.15 2.719,0.224 0.916,0.076 1.766,0.141 2.551,0.198 0.785,0.055 1.476,0.111 2.074,0.168 0.598,0.056 1.046,0.103 1.346,0.14 1.083,0.074 1.942,-0.113 2.578,-0.561 0.635,-0.449 1.027,-1.122 1.178,-2.021 0.037,-0.299 0.168,-1.196 0.391,-2.693 0.224,-1.496 0.505,-3.291 0.841,-5.386 0.336,-2.095 0.691,-4.349 1.065,-6.761 0.374,-2.413 0.729,-4.667 1.066,-6.761 0.336,-2.095 0.625,-3.891 0.869,-5.387 0.242,-1.496 0.4,-2.395 0.476,-2.693 m -35.261,-4.881 c 0,-0.525 0.028,-0.983 0.084,-1.375 0.057,-0.393 0.122,-0.701 0.197,-0.926 0.074,-0.299 0.168,-0.524 0.279,-0.674 -0.933,0.486 -1.831,0.973 -2.69,1.459 -0.747,0.412 -1.495,0.832 -2.242,1.263 -0.747,0.43 -1.383,0.795 -1.906,1.094 -0.972,0.561 -1.635,1.235 -1.99,2.02 -0.355,0.785 -0.439,1.608 -0.253,2.469 0.076,0.224 0.244,1.047 0.505,2.469 0.262,1.421 0.588,3.142 0.981,5.162 0.392,2.019 0.803,4.189 1.233,6.508 0.43,2.32 0.831,4.49 1.205,6.509 0.374,2.02 0.701,3.76 0.982,5.218 0.28,1.459 0.439,2.319 0.476,2.581 0.15,0.823 0.42,1.459 0.813,1.908 0.392,0.449 0.849,0.561 1.373,0.336 0.299,-0.149 0.543,-0.317 0.728,-0.504 0.114,-0.113 0.188,-0.207 0.225,-0.281 z" />
      </g>
    </g>
  </g>
  <circle
     cx="8.4934998"
     cy="8.7299881"
     r="7.9375"
     id="circle517"
     style="opacity:0.2;stroke-width:0.14032" />
  <circle
     cx="8.4939003"
     cy="8.4599991"
     r="7.9375"
     style="fill:url(#a);paint-order:normal"
     id="circle519" />
  <path
     style="fill:#000000;fill-opacity:0.29838712;stroke:none;stroke-width:0.09203778px;stroke-linecap:butt;stroke-linejoin:miter;stroke-opacity:1"
     d="m 8.8312352,3.3357216 c -0.0039,-1.03e-4 -0.00793,0.00218 -0.011885,0.00258 -0.00872,8.776e-4 -0.017089,0.00244 -0.025836,0.00568 -0.0067,0.00246 -0.01307,0.0055 -0.019637,0.0093 -0.00391,0.00226 -0.00807,0.00297 -0.011885,0.00568 -0.0074,0.00528 -0.014766,0.011123 -0.021706,0.018086 -0.00158,0.00159 -0.00307,0.00307 -0.00465,0.00465 -0.4006374,0.08415 -1.3194061,0.5922619 -1.5574973,0.8955349 -0.061342,0.026771 -0.092798,0.080723 -0.05736,0.1421074 l 0.00103,0.00155 0.3963486,0.6862495 C 7.4157475,5.1831072 7.3250316,5.2481598 7.2566858,5.2869853 L 7.1068288,5.027058 C 7.0781803,4.9837338 7.0403641,4.9504642 6.9988253,4.9237071 a 0.24014679,0.90055037 60.000001 0 0 0.00207,-0.00258 c -0.021952,-0.014218 -0.045637,-0.025536 -0.070796,-0.033072 -0.024331,-0.00709 -0.050349,-0.010441 -0.077513,-0.00982 -0.00271,4.34e-5 -0.00553,3.884e-4 -0.00827,5.167e-4 -0.02255,0.00121 -0.045955,0.00558 -0.07028,0.012919 -0.00707,0.0021 -0.01397,0.00405 -0.021185,0.00672 -0.02862,0.010669 -0.058112,0.024249 -0.088882,0.044441 l -0.7627278,0.454222 c -0.039568,0.023489 -0.071669,0.046439 -0.099217,0.069245 -0.00623,0.00518 -0.010358,0.010369 -0.01602,0.015503 -0.019682,0.017762 -0.037147,0.035492 -0.050643,0.052709 -0.00384,0.00495 -0.00696,0.00957 -0.010334,0.014469 -0.012491,0.01792 -0.022561,0.035518 -0.029456,0.052709 -0.00109,0.00279 -0.00214,0.0055 -0.0031,0.00827 -0.029918,0.083949 -0.00205,0.1583852 0.028424,0.2170366 l 0.149856,0.2599252 C 5.7562554,6.1070586 5.6477492,6.1310036 5.5426138,6.1566826 L 5.193286,5.5510467 l -0.00723,-0.011885 0.00362,-0.0031 c -0.00184,-0.00181 -0.0061,-0.00205 -0.00827,-0.00362 -0.0086,-0.01336 -0.018417,-0.023609 -0.029456,-0.031005 -0.00461,-0.00312 -0.00955,-0.00408 -0.014467,-0.0062 -0.00858,-0.00369 -0.017142,-0.00702 -0.026355,-0.00775 -0.00534,-4.387e-4 -0.010573,5.133e-4 -0.01602,0.00103 -0.00951,9.06e-4 -0.01888,0.00248 -0.028421,0.0062 -0.005,0.00194 -0.00955,0.00455 -0.01447,0.00723 -0.00496,0.00269 -0.010163,0.00381 -0.014986,0.00723 -0.0074,0.00528 -0.014248,0.01164 -0.021187,0.018603 -0.00167,0.00168 -0.00349,0.00298 -0.00517,0.00465 -0.4008703,0.084426 -1.3194882,0.5923698 -1.5574974,0.8955351 -0.061284,0.026785 -0.092264,0.080233 -0.056842,0.1415905 0,0 0,5.168e-4 0,5.168e-4 l 5.159e-4,5.167e-4 v 5.167e-4 L 3.7794467,7.2335979 C 3.5697844,7.5230326 3.4389003,7.840714 3.3675938,8.1637554 3.2154641,9.5288376 3.8604023,10.56842 4.3499433,11.462198 c 0.027939,0.172721 0.1099322,0.272737 0.2036034,0.357594 0.00523,-0.0021 0.010274,-0.0046 0.015502,-0.0067 l 0.098701,0.170528 1.2515789,2.168301 c 0.040438,0.0774 0.1134775,0.11777 0.2036008,0.134356 1.5061268,0.139902 2.7967098,-1.033605 3.0509164,-1.723375 0.036999,-0.109593 0.027384,-0.179069 -0.010337,-0.258894 L 7.9625728,10.224073 7.8643908,10.053544 C 8.0128006,9.9501826 8.1611575,9.8433576 8.309316,9.7321226 8.5555271,9.7020726 8.9466794,9.6917326 9.1852124,9.2262196 9.3542675,9.1612596 9.5212055,9.0929651 9.6859475,9.0221021 l 0.09818,0.1705285 1.1926685,2.0659834 c 0.04045,0.0774 0.11348,0.118287 0.203601,0.134873 1.506127,0.139902 2.796712,-1.034121 3.050916,-1.7238914 0.037,-0.109593 0.02687,-0.178553 -0.01085,-0.258378 L 12.937882,7.1891573 12.838666,7.0181115 c -0.01808,-0.165763 -0.0884,-0.2762521 -0.203085,-0.3395074 -0.493745,-0.8124009 -0.920645,-1.8327806 -1.997256,-2.4132418 -7.96e-4,-4.301e-4 -0.0018,-6.039e-4 -0.0026,-0.00103 -0.07668,-0.04127 -0.156211,-0.080735 -0.239757,-0.1173067 C 10.039724,3.9881249 9.6703285,3.9938075 9.312852,4.0850151 l -0.3948008,-0.6841825 -0.00723,-0.012402 0.00362,-0.0031 c -0.00194,-0.00191 -0.00649,-0.00197 -0.00879,-0.00362 -0.00857,-0.013249 -0.018473,-0.023656 -0.029453,-0.031005 -0.00396,-0.00264 -0.00822,-0.00326 -0.012403,-0.00517 -0.00913,-0.00418 -0.018028,-0.00748 -0.027905,-0.00827 -0.00164,-1.344e-4 -0.003,-0.00151 -0.00465,-0.00155 z"
     id="path5418"
     inkscape:connector-curvature="0" />
  <g
     transform="matrix(0.07970706,-0.04601889,0.04601889,0.07970706,-15.868012,9.8244962)"
     id="g1099">
    <path
       style="fill:url(#linearGradient1032);fill-opacity:1;stroke:none;stroke-width:1px;stroke-linecap:butt;stroke-linejoin:miter;stroke-opacity:1"
       d="m 248.58745,126.56153 v 30.48043 c -0.0399,0.94798 0.42813,1.72637 1.18601,2.37202 13.41183,9.49852 31.93174,5.46518 38.07088,0.3558 0.94351,-0.83021 1.22585,-1.53462 1.30462,-2.49062 v -32.73384 l -22.17837,1.89761 z"
       id="path1024"
       inkscape:connector-curvature="0"
       sodipodi:nodetypes="cccccccc" />
    <path
       sodipodi:nodetypes="cccccc"
       inkscape:connector-curvature="0"
       id="path1008"
       d="m 281.7571,86.968981 c 8.84734,12.018223 7.07457,24.917129 7.32375,35.986549 -15.49131,4.11871 -31.95484,6.30888 -47.25365,2.38177 l 0.4744,-39.588861 5.45564,-1.897614 z"
       style="fill:url(#linearGradient1010);fill-opacity:1;stroke:none;stroke-width:1px;stroke-linecap:butt;stroke-linejoin:miter;stroke-opacity:1" />
    <path
       style="fill:url(#linearGradient996);fill-opacity:1;stroke:none;stroke-width:1px;stroke-linecap:butt;stroke-linejoin:miter;stroke-opacity:1"
       d="m 193.80421,86.585466 c -8.84735,12.018223 -8.42538,25.300644 -8.67456,36.370064 15.49132,4.11871 33.85741,5.8057 49.15622,1.87859 l -0.64213,-39.085681 -5.45564,-1.897614 z"
       id="path988"
       inkscape:connector-curvature="0"
       sodipodi:nodetypes="cccccc" />
    <path
       sodipodi:nodetypes="cccccccc"
       inkscape:connector-curvature="0"
       id="path1044"
       d="m 185.28336,126.30994 v 30.48043 c -0.0399,0.94798 0.42813,1.72637 1.18601,2.37202 13.41183,9.49852 31.93174,5.46518 38.07088,0.3558 0.94351,-0.83021 1.22584,-1.53462 1.30461,-2.49062 v -32.73384 l -22.17836,1.89761 z"
       style="fill:url(#linearGradient1046);fill-opacity:1;stroke:none;stroke-width:1px;stroke-linecap:butt;stroke-linejoin:miter;stroke-opacity:1" />
    <path
       inkscape:connector-curvature="0"
       style="fill:#000000;fill-opacity:0.07692309;stroke:none;stroke-width:1px;stroke-linecap:butt;stroke-linejoin:miter;stroke-opacity:1"
       d="m 228.1875,83.851562 -34.38281,2.734376 c -0.5086,0.690874 -0.97851,1.387374 -1.42774,2.085937 8.65563,2.404238 32.39177,2.039455 33.50782,1.277344 0,0 1.64677,-0.594143 2.75585,-1.484375 0.0925,3.008006 4.03126,4.474609 4.03126,4.474609 v 31.576167 c 0.006,0.26637 -0.15261,0.54169 -0.38086,0.79297 0.67011,-0.14801 1.33511,-0.30544 1.99414,-0.47461 l -0.64063,-39.085933 z m 19.57031,0 -5.45703,1.896485 -0.47266,39.589843 c 0.27389,0.0703 0.54957,0.13124 0.82422,0.19727 -0.19869,-0.24695 -0.3346,-0.5426 -0.33398,-0.89258 V 93.195312 c 2.00016,-1.140506 3.67333,-1.455446 3.70703,-5.113281 l 1.55469,1.263672 c 1.82356,2.074233 23.99998,2.487946 35.8164,0.05664 -0.50224,-0.814356 -1.04441,-1.626362 -1.63867,-2.433594 z m 41.32227,41.238278 c -13.61195,3.44937 -28.9874,2.25289 -41.36133,1.42774 0.2903,0.0451 0.57827,0.10484 0.86914,0.14648 v 4.45703 c 13.83277,1.63156 27.42797,1.22385 40.49219,-1.55664 0.0263,-0.0557 0.0439,-0.10887 0.0684,-0.16406 v -4.17969 c -0.0241,-0.0431 -0.0426,-0.0882 -0.0684,-0.13086 z m -94.24024,1.15821 -9.55664,0.0625 v 3.27734 c 13.30192,1.83223 26.44738,2.5406 40.5625,1.3418 v -4.3125 c -10.63604,0.88044 -21.33527,0.55745 -31.00586,-0.36914 z"
       id="path1065" />
    <path
       style="fill:url(#linearGradient827);fill-opacity:1;stroke:none;stroke-width:1px;stroke-linecap:butt;stroke-linejoin:miter;stroke-opacity:1"
       d="m 193.80421,86.585466 c 6.85266,-7.492129 17.83848,-12.139301 34.83599,-5.944491 v -3.259882 c 0.0571,-1.281962 0.40403,-3.024106 4.03146,-3.068125 l 9.64726,-0.127839 c 2.57039,-0.147002 3.60093,1.443129 3.70732,3.195964 v 3.259882 c 6.03238,0.04211 27.02227,-5.675544 35.73086,6.328006 -5.99618,2.729608 -31.88799,2.846883 -34.17758,0.242565 l -1.55328,-1.265273 c -0.0337,3.657835 -1.70716,3.973035 -3.70732,5.113541 v 31.448276 c -0.002,1.12245 1.30219,1.74891 2.10934,1.6619 12.81311,0.78353 29.85929,2.53427 44.65259,-1.21446 0.76234,1.26275 0.81859,2.73732 0,4.47435 -14.89054,3.16919 -30.4705,3.25724 -46.30632,0.75477 -4.7734,3.08435 -8.51416,1.05481 -10.99411,0 -16.47173,1.99289 -31.46811,1.3518 -46.67847,-0.75477 -0.42041,-1.30732 -0.64775,-2.69737 0.0277,-4.47435 13.17215,1.90752 29.55542,2.93151 45.39526,1.06644 0.70539,0.12348 2.16517,-0.81922 2.14674,-1.64172 V 90.804137 c 0,0 -3.93899,-1.466342 -4.03146,-4.474348 -1.10908,0.890232 -2.75538,1.483999 -2.75538,1.483999 -1.2676,0.8656 -28.16829,1.102175 -32.08062,-1.228322 z"
       id="path819"
       inkscape:connector-curvature="0"
       sodipodi:nodetypes="ccccccccccccccccccccccccc" />
    <path
       style="fill:none;stroke:#1c2435;stroke-width:1.20000005;stroke-linecap:round;stroke-linejoin:miter;stroke-miterlimit:4;stroke-dasharray:none;stroke-opacity:0.37362641"
       d="m 228.82184,82.658807 c 4.00597,1.530472 12.67697,1.237484 16.85656,0"
       id="path855"
       inkscape:connector-curvature="0"
       sodipodi:nodetypes="cc" />
    <path
       style="fill:url(#linearGradient881);fill-opacity:1;stroke:none;stroke-width:1px;stroke-linecap:butt;stroke-linejoin:miter;stroke-opacity:1"
       d="m 232.67095,90.80357 v 2.125 l 9.64844,1.119141 v -2.988282 l -2.44922,0.394532 c -1.63245,0.120614 -3.83202,0.290098 -5.55469,-0.111329 z"
       id="path857"
       inkscape:connector-curvature="0"
       sodipodi:nodetypes="ccccccc" />
    <path
       inkscape:connector-curvature="0"
       style="color:#000000;font-style:normal;font-variant:normal;font-weight:normal;font-stretch:normal;font-size:medium;line-height:normal;font-family:sans-serif;font-variant-ligatures:normal;font-variant-position:normal;font-variant-caps:normal;font-variant-numeric:normal;font-variant-alternates:normal;font-feature-settings:normal;text-indent:0;text-align:start;text-decoration:none;text-decoration-line:none;text-decoration-style:solid;text-decoration-color:#000000;letter-spacing:normal;word-spacing:normal;text-transform:none;writing-mode:lr-tb;direction:ltr;text-orientation:mixed;dominant-baseline:auto;baseline-shift:baseline;text-anchor:start;white-space:normal;shape-padding:0;clip-rule:nonzero;display:inline;overflow:visible;visibility:visible;opacity:1;isolation:auto;mix-blend-mode:normal;color-interpolation:sRGB;color-interpolation-filters:linearRGB;solid-color:#000000;solid-opacity:1;vector-effect:none;fill:#1e2933;fill-opacity:0.43406593;fill-rule:nonzero;stroke:none;stroke-width:1px;stroke-linecap:round;stroke-linejoin:miter;stroke-miterlimit:4;stroke-dasharray:none;stroke-dashoffset:0;stroke-opacity:1;color-rendering:auto;image-rendering:auto;shape-rendering:auto;text-rendering:auto;enable-background:accumulate"
       d="m 232.67095,100.56138 v 1.03516 c 2.71183,0.66466 6.71297,0.75428 9.64844,0.0977 v -1.04101 c -2.799,0.65619 -7.11778,0.56817 -9.64844,-0.0918 z m 0,9.42774 v 1.03711 c 2.71183,0.66466 6.71297,0.75427 9.64844,0.0977 v -1.04101 c -2.799,0.65592 -7.11778,0.56647 -9.64844,-0.0937 z m 9.15625,13 a 0.50005,0.50005 0 0 0 -0.18359,0.0293 c -2.9298,0.9909 -5.81627,0.89774 -8.55664,0 a 0.50005,0.50005 0 0 0 -0.19727,-0.0273 0.50005,0.50005 0 0 0 -0.11328,0.97656 c 2.91961,0.95646 6.04912,1.05959 9.1875,-0.002 a 0.50005,0.50005 0 0 0 -0.13672,-0.97656 z"
       id="path905" />
    <path
       inkscape:connector-curvature="0"
       style="opacity:0.39899998;fill:#ffffff;fill-opacity:0.97252742;stroke:none;stroke-width:1.20000005;stroke-linecap:round;stroke-linejoin:round;stroke-miterlimit:4;stroke-dasharray:none;stroke-dashoffset:0;stroke-opacity:0.43406593;paint-order:fill markers stroke"
       d="m 242.31939,74.184429 -9.64844,0.128907 c -2.08212,0.02527 -3.06473,0.615502 -3.55078,1.351562 a 9.7845726,2.6092196 0 0 0 8.41602,1.28125 9.7845726,2.6092196 0 0 0 8.07031,-1.136719 c -0.51721,-1.012123 -1.53856,-1.725 -3.28711,-1.625 z"
       id="path924" />
    <path
       style="opacity:1;fill:#000000;fill-opacity:0.17582421;stroke:none;stroke-width:1.20000005;stroke-linecap:round;stroke-linejoin:round;stroke-miterlimit:4;stroke-dasharray:none;stroke-dashoffset:0;stroke-opacity:0.43406593;paint-order:fill markers stroke"
       d="m 225.75606,81.469279 c 0,0.944217 -4.9331,2.464642 -11.43563,2.465404 -6.50252,7.63e-4 -12.11504,-1.518426 -12.12554,-2.462642 -0.0105,-0.944216 5.24954,-1.711104 11.75205,-1.71339 6.50251,-0.0023 11.78806,0.760892 11.80906,1.705105"
       id="path1019"
       inkscape:connector-curvature="0"
       sodipodi:nodetypes="cscsc" />
    <g
       id="g974"
       transform="translate(125.24253)">
      <path
         sodipodi:nodetypes="cccc"
         inkscape:connector-curvature="0"
         id="path932"
         d="m 77.505678,71.753535 c 0.798415,-3.101811 21.758903,-2.588104 22.474867,0 L 89.128564,73.76975 Z"
         style="fill:url(#linearGradient5383);fill-opacity:1;stroke:none;stroke-width:1px;stroke-linecap:butt;stroke-linejoin:miter;stroke-opacity:1" />
      <path
         sodipodi:nodetypes="sssssssss"
         inkscape:connector-curvature="0"
         id="rect929"
         d="m 79.032305,70.731916 c 5.977073,1.427075 12.268051,1.912432 19.358293,0 0.825029,-0.222533 1.542445,0.154226 1.542445,1.00874 v 9.051061 c 0,0.854514 -0.700967,1.393753 -1.542445,1.542444 -6.750993,1.192913 -13.276538,1.484038 -19.358293,0 -0.830156,-0.20257 -1.542444,-0.68793 -1.542444,-1.542444 v -9.051061 c 0,-0.854514 0.711292,-1.207184 1.542444,-1.00874 z"
         style="opacity:1;fill:url(#linearGradient5385);fill-opacity:1;stroke:none;stroke-width:1.20000005;stroke-linecap:round;stroke-linejoin:round;stroke-miterlimit:4;stroke-dasharray:none;stroke-dashoffset:0;stroke-opacity:0.43406593;paint-order:fill markers stroke" />
      <path
         sodipodi:nodetypes="scssccss"
         inkscape:connector-curvature="0"
         id="path950"
         d="m 98.693359,70.675781 c -0.09857,0.0093 -0.199605,0.02882 -0.302734,0.05664 -7.090242,1.912432 -13.380349,1.427075 -19.357422,0 -0.831152,-0.198444 -1.542969,0.153298 -1.542969,1.007812 v 0.01563 c 5.760285,1.586052 15.603167,2.079783 22.44336,0.160157 v -0.175782 c 0,-0.747699 -0.550212,-1.129736 -1.240235,-1.064453 z"
         style="opacity:1;fill:#ffffff;fill-opacity:0.12637365;stroke:none;stroke-width:1.20000005;stroke-linecap:round;stroke-linejoin:round;stroke-miterlimit:4;stroke-dasharray:none;stroke-dashoffset:0;stroke-opacity:0.43406593;paint-order:fill markers stroke" />
    </g>
    <path
       sodipodi:nodetypes="cscsc"
       inkscape:connector-curvature="0"
       id="path1022"
       d="m 272.71961,81.469279 c 0,0.944217 -4.9331,2.464642 -11.43563,2.465404 -6.50252,7.63e-4 -12.11504,-1.518426 -12.12554,-2.462642 -0.0105,-0.944216 5.24954,-1.711104 11.75205,-1.71339 6.50251,-0.0023 11.78806,0.760892 11.80906,1.705105"
       style="opacity:1;fill:#000000;fill-opacity:0.17582421;stroke:none;stroke-width:1.20000005;stroke-linecap:round;stroke-linejoin:round;stroke-miterlimit:4;stroke-dasharray:none;stroke-dashoffset:0;stroke-opacity:0.43406593;paint-order:fill markers stroke" />
    <g
       id="g982"
       transform="translate(171.97128)">
      <path
         style="fill:url(#linearGradient969);fill-opacity:1;stroke:none;stroke-width:1px;stroke-linecap:butt;stroke-linejoin:miter;stroke-opacity:1"
         d="m 77.505678,71.753535 c 0.798415,-3.101811 21.758903,-2.588104 22.474867,0 L 89.128564,73.76975 Z"
         id="path976"
         inkscape:connector-curvature="0"
         sodipodi:nodetypes="cccc" />
      <path
         style="opacity:1;fill:url(#linearGradient940);fill-opacity:1;stroke:none;stroke-width:1.20000005;stroke-linecap:round;stroke-linejoin:round;stroke-miterlimit:4;stroke-dasharray:none;stroke-dashoffset:0;stroke-opacity:0.43406593;paint-order:fill markers stroke"
         d="m 79.032305,70.731916 c 5.977073,1.427075 12.268051,1.912432 19.358293,0 0.825029,-0.222533 1.542445,0.154226 1.542445,1.00874 v 9.051061 c 0,0.854514 -0.700967,1.393753 -1.542445,1.542444 -6.750993,1.192913 -13.276538,1.484038 -19.358293,0 -0.830156,-0.20257 -1.542444,-0.68793 -1.542444,-1.542444 v -9.051061 c 0,-0.854514 0.711292,-1.207184 1.542444,-1.00874 z"
         id="path978"
         inkscape:connector-curvature="0"
         sodipodi:nodetypes="sssssssss" />
      <path
         style="opacity:1;fill:#ffffff;fill-opacity:0.12637365;stroke:none;stroke-width:1.20000005;stroke-linecap:round;stroke-linejoin:round;stroke-miterlimit:4;stroke-dasharray:none;stroke-dashoffset:0;stroke-opacity:0.43406593;paint-order:fill markers stroke"
         d="m 98.693359,70.675781 c -0.09857,0.0093 -0.199605,0.02882 -0.302734,0.05664 -7.090242,1.912432 -13.380349,1.427075 -19.357422,0 -0.831152,-0.198444 -1.542969,0.153298 -1.542969,1.007812 v 0.01563 c 5.760285,1.586052 15.603167,2.079783 22.44336,0.160157 v -0.175782 c 0,-0.747699 -0.550212,-1.129736 -1.240235,-1.064453 z"
         id="path980"
         inkscape:connector-curvature="0"
         sodipodi:nodetypes="scssccss" />
    </g>
  </g>
</svg>
