<?xml version="1.0" encoding="UTF-8" standalone="no"?>
<svg
   xmlns:dc="http://purl.org/dc/elements/1.1/"
   xmlns:cc="http://creativecommons.org/ns#"
   xmlns:rdf="http://www.w3.org/1999/02/22-rdf-syntax-ns#"
   xmlns:svg="http://www.w3.org/2000/svg"
   xmlns="http://www.w3.org/2000/svg"
   xmlns:xlink="http://www.w3.org/1999/xlink"
   xmlns:sodipodi="http://sodipodi.sourceforge.net/DTD/sodipodi-0.dtd"
   xmlns:inkscape="http://www.inkscape.org/namespaces/inkscape"
   width="64"
   height="64"
   version="1.1"
   viewBox="0 0 16.933 16.933"
   id="svg52"
   sodipodi:docname="4kvideodownloader.svg"
   inkscape:version="0.92.1 r15371">
  <metadata
     id="metadata56">
    <rdf:RDF>
      <cc:Work
         rdf:about="">
        <dc:format>image/svg+xml</dc:format>
        <dc:type
           rdf:resource="http://purl.org/dc/dcmitype/StillImage" />
        <dc:title></dc:title>
      </cc:Work>
    </rdf:RDF>
  </metadata>
  <sodipodi:namedview
     pagecolor="#ffffff"
     bordercolor="#666666"
     borderopacity="1"
     objecttolerance="10"
     gridtolerance="10"
     guidetolerance="10"
     inkscape:pageopacity="0"
     inkscape:pageshadow="2"
     inkscape:window-width="1920"
     inkscape:window-height="1040"
     id="namedview54"
     showgrid="false"
     inkscape:zoom="5.2149125"
     inkscape:cx="32"
     inkscape:cy="32"
     inkscape:window-x="0"
     inkscape:window-y="0"
     inkscape:window-maximized="1"
     inkscape:current-layer="svg52" />
  <defs
     id="defs12">
    <linearGradient
       id="b"
       x1="-6.1472"
       x2="-6.1472"
       y1="-137.82"
       y2="-100.78"
       gradientTransform="matrix(0.53033,0,0,0.53033,11.536,71.99)"
       gradientUnits="userSpaceOnUse">
      <stop
         stop-color="#14dc78"
         offset="0"
         id="stop2" />
      <stop
         stop-color="#14a03c"
         offset="1"
         id="stop4" />
    </linearGradient>
    <linearGradient
       id="a"
       x1="-6.1738"
       x2="-6.1738"
       y1="-126.08"
       y2="-126.7"
       gradientTransform="matrix(0.53033,0,0,0.53033,11.537,71.99)"
       gradientUnits="userSpaceOnUse">
      <stop
         stop-color="#14e650"
         offset="0"
         id="stop7" />
      <stop
         stop-color="#148232"
         offset="1"
         id="stop9" />
    </linearGradient>
    <linearGradient
       id="a-3">
      <stop
         id="stop4557"
         offset="0"
         stop-color="#3889e9" />
      <stop
         id="stop4559"
         offset="1"
         stop-color="#5ea5fb" />
    </linearGradient>
    <linearGradient
       xlink:href="#a-3"
       gradientUnits="userSpaceOnUse"
       y2="517.8"
       y1="545.8"
       x2="399.57"
       x1="399.57"
       id="d" />
    <linearGradient
       gradientUnits="userSpaceOnUse"
       y2="517.77"
       y1="546.07"
       x2="400.7"
       x1="400.51"
       id="c">
      <stop
         id="stop4563"
         offset="0"
         stop-color="#30cf41" />
      <stop
         id="stop4565"
         offset="1"
         stop-color="#47f383" />
    </linearGradient>
    <linearGradient
       xlink:href="#a-3"
       gradientUnits="userSpaceOnUse"
       y2="267.75"
       y1="267.75"
       x2="536"
       x1="-.5"
       id="b-6" />
    <filter
       color-interpolation-filters="sRGB"
       height="1.072"
       width="1.072"
       y="-.036"
       x="-.036"
       id="f">
      <feGaussianBlur
         id="feGaussianBlur4569"
         stdDeviation="0.41999874" />
    </filter>
    <filter
       color-interpolation-filters="sRGB"
       height="1.0932"
       width="1.0586"
       y="-.046606"
       x="-.029297"
       id="e">
      <feGaussianBlur
         id="feGaussianBlur4572"
         stdDeviation="0.23309066" />
    </filter>
  </defs>
  <circle
     cx="-330.35001"
     cy="-328.38199"
     r="0"
     id="circle14"
     style="fill:#5e4aa6;stroke-width:0.26458001" />
  <circle
     cx="8.4934998"
     cy="8.7299881"
     r="7.9375"
     id="circle16"
     style="opacity:0.2;stroke-width:0.14032" />
  <circle
     cx="8.4934998"
     cy="8.4599991"
     r="7.9375"
     id="circle18"
     style="fill:url(#b);stroke-width:0.14032" />
  <path
     style="fill:#000000;stroke-width:0.39569202;fill-opacity:0.15725806"
     inkscape:connector-curvature="0"
     d="M 6.7977713,6.5671322 C 6.5713173,6.3893767 6.2869056,6.283562 5.9780249,6.283562 c -0.7271867,0 -1.3189239,0.5866392 -1.3374897,1.3174628 -0.7506495,0.2846794 -1.2848597,1.0169205 -1.2848597,1.8753731 0,1.0140531 0.7455372,1.8520551 1.7125723,1.9841741 v 0.01812 h 6.8505042 v -0.0032 c 0.955142,-0.05602 1.712572,-0.856992 1.712572,-1.8367969 0,-0.9449639 -0.704477,-1.7235065 -1.611348,-1.8280336 0.0038,-0.057603 0.0058,-0.1157209 0.0058,-0.1742766 2e-6,-1.4644563 -1.222003,-2.6516931 -2.729437,-2.6516931 -1.1157765,0 -2.0752239,0.6504807 -2.4984161,1.5823512 z"
     id="path4667" />
  <path
     id="path4603-7"
     d="M 6.7977713,6.3388251 C 6.5713173,6.1610696 6.2869056,6.0552549 5.9780249,6.0552549 c -0.7271867,0 -1.3189239,0.5866392 -1.3374897,1.3174628 -0.7506495,0.2846794 -1.2848597,1.0169205 -1.2848597,1.8753731 0,1.0140532 0.7455372,1.8520552 1.7125723,1.9841742 v 0.01812 h 6.8505042 v -0.0032 c 0.955142,-0.05602 1.712572,-0.856992 1.712572,-1.836797 0,-0.9449639 -0.704477,-1.7235065 -1.611348,-1.8280336 0.0038,-0.057603 0.0058,-0.1157209 0.0058,-0.1742766 2e-6,-1.4644563 -1.222003,-2.6516931 -2.729437,-2.6516931 -1.1157765,0 -2.0752239,0.6504807 -2.4984161,1.5823512 z"
     inkscape:connector-curvature="0"
     style="fill:#ffffff;stroke-width:0.39569202" />
</svg>
